<?xml version="1.0" encoding="iso-8859-1"?>
<!-- Generator: Adobe Illustrator 15.0.0, SVG Export Plug-In . SVG Version: 6.00 Build 0)  -->
<!DOCTYPE svg PUBLIC "-//W3C//DTD SVG 1.1//EN" "http://www.w3.org/Graphics/SVG/1.1/DTD/svg11.dtd">
<svg version="1.1" id="Layer_1" xmlns="http://www.w3.org/2000/svg" xmlns:xlink="http://www.w3.org/1999/xlink" x="0px" y="0px"
	 width="331px" height="670px" viewBox="0 0 331 670" style="enable-background:new 0 0 331 670;" xml:space="preserve">
<g>
	<defs>
		<rect id="SVGID_1_" width="331" height="670"/>
	</defs>
	<clipPath id="SVGID_2_">
		<use xlink:href="#SVGID_1_"  style="overflow:visible;"/>
	</clipPath>
	<rect x="324" y="49" style="clip-path:url(#SVGID_2_);fill:#545454;" width="7" height="573"/>
	<rect y="49" style="clip-path:url(#SVGID_2_);fill:#353535;" width="8" height="573"/>
	<g style="clip-path:url(#SVGID_2_);">
		<defs>
			<rect id="SVGID_3_" width="331" height="670"/>
		</defs>
		<clipPath id="SVGID_4_">
			<use xlink:href="#SVGID_3_"  style="overflow:visible;"/>
		</clipPath>
		<path style="clip-path:url(#SVGID_4_);fill:#DDDDDD;" d="M331,36.25V49H0V36.25v-0.5C0,16.558,15.558,1,34.75,1h261.5
			C315.441,1,331,16.558,331,35.75V36.25z"/>
		<path style="clip-path:url(#SVGID_4_);fill:#DDDDDD;" d="M331,634.75V622H0v12.75v0.5C0,654.441,15.558,670,34.75,670h261.5
			c19.191,0,34.75-15.559,34.75-34.75V634.75z"/>
		<path style="clip-path:url(#SVGID_4_);fill:#444444;" d="M96,0c1.104,0,2,0.648,2,1.5S97.104,3,96,3H49c-1.104,0-2-0.648-2-1.5
			S47.896,0,49,0"/>
		<path style="clip-path:url(#SVGID_4_);fill:#FFFFFF;" d="M326,37.667V49H5V37.667v-0.333C5,20.028,18.666,6,35.971,6h258.332
			C311.608,6,326,20.028,326,37.333V37.667z"/>
		<path style="clip-path:url(#SVGID_4_);fill:#FFFFFF;" d="M326,634.334V622H5v12.334v0.332C5,651.972,18.939,666,36.244,666
			h258.332C311.882,666,326,651.972,326,634.666V634.334z"/>
		<rect x="5" y="49" style="clip-path:url(#SVGID_4_);fill:#444444;" width="321" height="573"/>
		<path style="clip-path:url(#SVGID_4_);fill:#5B5B5B;" d="M72.246,633.734c0,0.613-0.497,1.109-1.109,1.109
			c-0.613,0-1.11-0.496-1.11-1.109s0.497-1.109,1.11-1.109C71.749,632.625,72.246,633.121,72.246,633.734"/>
		<path style="clip-path:url(#SVGID_4_);fill:#5B5B5B;" d="M72.246,637.734c0,0.613-0.497,1.109-1.109,1.109
			c-0.613,0-1.11-0.496-1.11-1.109s0.497-1.109,1.11-1.109C71.749,636.625,72.246,637.121,72.246,637.734"/>
		<path style="clip-path:url(#SVGID_4_);fill:#5B5B5B;" d="M72.246,641.734c0,0.613-0.497,1.109-1.109,1.109
			c-0.613,0-1.11-0.496-1.11-1.109s0.497-1.109,1.11-1.109C71.749,640.625,72.246,641.121,72.246,641.734"/>
		<path style="clip-path:url(#SVGID_4_);fill:#5B5B5B;" d="M72.246,645.734c0,0.613-0.497,1.109-1.109,1.109
			c-0.613,0-1.11-0.496-1.11-1.109s0.497-1.109,1.11-1.109C71.749,644.625,72.246,645.121,72.246,645.734"/>
		<path style="clip-path:url(#SVGID_4_);fill:#5B5B5B;" d="M76.246,633.734c0,0.613-0.497,1.109-1.109,1.109
			c-0.613,0-1.11-0.496-1.11-1.109s0.497-1.109,1.11-1.109C75.749,632.625,76.246,633.121,76.246,633.734"/>
		<path style="clip-path:url(#SVGID_4_);fill:#5B5B5B;" d="M76.246,637.734c0,0.613-0.497,1.109-1.109,1.109
			c-0.613,0-1.11-0.496-1.11-1.109s0.497-1.109,1.11-1.109C75.749,636.625,76.246,637.121,76.246,637.734"/>
		<path style="clip-path:url(#SVGID_4_);fill:#5B5B5B;" d="M76.246,641.734c0,0.613-0.497,1.109-1.109,1.109
			c-0.613,0-1.11-0.496-1.11-1.109s0.497-1.109,1.11-1.109C75.749,640.625,76.246,641.121,76.246,641.734"/>
		<path style="clip-path:url(#SVGID_4_);fill:#5B5B5B;" d="M76.246,645.734c0,0.613-0.497,1.109-1.109,1.109
			c-0.613,0-1.11-0.496-1.11-1.109s0.497-1.109,1.11-1.109C75.749,644.625,76.246,645.121,76.246,645.734"/>
		<path style="clip-path:url(#SVGID_4_);fill:#5B5B5B;" d="M80.246,633.734c0,0.613-0.497,1.109-1.109,1.109
			c-0.613,0-1.11-0.496-1.11-1.109s0.497-1.109,1.11-1.109C79.749,632.625,80.246,633.121,80.246,633.734"/>
		<path style="clip-path:url(#SVGID_4_);fill:#5B5B5B;" d="M80.246,637.734c0,0.613-0.497,1.109-1.109,1.109
			c-0.613,0-1.11-0.496-1.11-1.109s0.497-1.109,1.11-1.109C79.749,636.625,80.246,637.121,80.246,637.734"/>
		<path style="clip-path:url(#SVGID_4_);fill:#5B5B5B;" d="M80.246,641.734c0,0.613-0.497,1.109-1.109,1.109
			c-0.613,0-1.11-0.496-1.11-1.109s0.497-1.109,1.11-1.109C79.749,640.625,80.246,641.121,80.246,641.734"/>
		<path style="clip-path:url(#SVGID_4_);fill:#5B5B5B;" d="M80.246,645.734c0,0.613-0.497,1.109-1.109,1.109
			c-0.613,0-1.11-0.496-1.11-1.109s0.497-1.109,1.11-1.109C79.749,644.625,80.246,645.121,80.246,645.734"/>
		<path style="clip-path:url(#SVGID_4_);fill:#5B5B5B;" d="M84.246,633.734c0,0.613-0.497,1.109-1.109,1.109
			c-0.613,0-1.11-0.496-1.11-1.109s0.497-1.109,1.11-1.109C83.749,632.625,84.246,633.121,84.246,633.734"/>
		<path style="clip-path:url(#SVGID_4_);fill:#5B5B5B;" d="M84.246,637.734c0,0.613-0.497,1.109-1.109,1.109
			c-0.613,0-1.11-0.496-1.11-1.109s0.497-1.109,1.11-1.109C83.749,636.625,84.246,637.121,84.246,637.734"/>
		<path style="clip-path:url(#SVGID_4_);fill:#5B5B5B;" d="M84.246,641.734c0,0.613-0.497,1.109-1.109,1.109
			c-0.613,0-1.11-0.496-1.11-1.109s0.497-1.109,1.11-1.109C83.749,640.625,84.246,641.121,84.246,641.734"/>
		<path style="clip-path:url(#SVGID_4_);fill:#5B5B5B;" d="M84.246,645.734c0,0.613-0.497,1.109-1.109,1.109
			c-0.613,0-1.11-0.496-1.11-1.109s0.497-1.109,1.11-1.109C83.749,644.625,84.246,645.121,84.246,645.734"/>
		<path style="clip-path:url(#SVGID_4_);fill:#5B5B5B;" d="M88.246,633.734c0,0.613-0.497,1.109-1.109,1.109
			c-0.613,0-1.11-0.496-1.11-1.109s0.497-1.109,1.11-1.109C87.749,632.625,88.246,633.121,88.246,633.734"/>
		<path style="clip-path:url(#SVGID_4_);fill:#5B5B5B;" d="M88.246,637.734c0,0.613-0.497,1.109-1.109,1.109
			c-0.613,0-1.11-0.496-1.11-1.109s0.497-1.109,1.11-1.109C87.749,636.625,88.246,637.121,88.246,637.734"/>
		<path style="clip-path:url(#SVGID_4_);fill:#5B5B5B;" d="M88.246,641.734c0,0.613-0.497,1.109-1.109,1.109
			c-0.613,0-1.11-0.496-1.11-1.109s0.497-1.109,1.11-1.109C87.749,640.625,88.246,641.121,88.246,641.734"/>
		<path style="clip-path:url(#SVGID_4_);fill:#5B5B5B;" d="M88.246,645.734c0,0.613-0.497,1.109-1.109,1.109
			c-0.613,0-1.11-0.496-1.11-1.109s0.497-1.109,1.11-1.109C87.749,644.625,88.246,645.121,88.246,645.734"/>
		<path style="clip-path:url(#SVGID_4_);fill:#5B5B5B;" d="M92.246,633.734c0,0.613-0.497,1.109-1.109,1.109
			c-0.613,0-1.11-0.496-1.11-1.109s0.497-1.109,1.11-1.109C91.749,632.625,92.246,633.121,92.246,633.734"/>
		<path style="clip-path:url(#SVGID_4_);fill:#5B5B5B;" d="M92.246,637.734c0,0.613-0.497,1.109-1.109,1.109
			c-0.613,0-1.11-0.496-1.11-1.109s0.497-1.109,1.11-1.109C91.749,636.625,92.246,637.121,92.246,637.734"/>
		<path style="clip-path:url(#SVGID_4_);fill:#5B5B5B;" d="M92.246,641.734c0,0.613-0.497,1.109-1.109,1.109
			c-0.613,0-1.11-0.496-1.11-1.109s0.497-1.109,1.11-1.109C91.749,640.625,92.246,641.121,92.246,641.734"/>
		<path style="clip-path:url(#SVGID_4_);fill:#5B5B5B;" d="M92.246,645.734c0,0.613-0.497,1.109-1.109,1.109
			c-0.613,0-1.11-0.496-1.11-1.109s0.497-1.109,1.11-1.109C91.749,644.625,92.246,645.121,92.246,645.734"/>
		<path style="clip-path:url(#SVGID_4_);fill:#5B5B5B;" d="M96.246,633.734c0,0.613-0.497,1.109-1.109,1.109
			c-0.613,0-1.11-0.496-1.11-1.109s0.497-1.109,1.11-1.109C95.749,632.625,96.246,633.121,96.246,633.734"/>
		<path style="clip-path:url(#SVGID_4_);fill:#5B5B5B;" d="M96.246,637.734c0,0.613-0.497,1.109-1.109,1.109
			c-0.613,0-1.11-0.496-1.11-1.109s0.497-1.109,1.11-1.109C95.749,636.625,96.246,637.121,96.246,637.734"/>
		<path style="clip-path:url(#SVGID_4_);fill:#5B5B5B;" d="M96.246,641.734c0,0.613-0.497,1.109-1.109,1.109
			c-0.613,0-1.11-0.496-1.11-1.109s0.497-1.109,1.11-1.109C95.749,640.625,96.246,641.121,96.246,641.734"/>
		<path style="clip-path:url(#SVGID_4_);fill:#5B5B5B;" d="M96.246,645.734c0,0.613-0.497,1.109-1.109,1.109
			c-0.613,0-1.11-0.496-1.11-1.109s0.497-1.109,1.11-1.109C95.749,644.625,96.246,645.121,96.246,645.734"/>
		<path style="clip-path:url(#SVGID_4_);fill:#5B5B5B;" d="M100.246,633.734c0,0.613-0.497,1.109-1.109,1.109
			c-0.613,0-1.11-0.496-1.11-1.109s0.497-1.109,1.11-1.109C99.749,632.625,100.246,633.121,100.246,633.734"/>
		<path style="clip-path:url(#SVGID_4_);fill:#5B5B5B;" d="M100.246,637.734c0,0.613-0.497,1.109-1.109,1.109
			c-0.613,0-1.11-0.496-1.11-1.109s0.497-1.109,1.11-1.109C99.749,636.625,100.246,637.121,100.246,637.734"/>
		<path style="clip-path:url(#SVGID_4_);fill:#5B5B5B;" d="M100.246,641.734c0,0.613-0.497,1.109-1.109,1.109
			c-0.613,0-1.11-0.496-1.11-1.109s0.497-1.109,1.11-1.109C99.749,640.625,100.246,641.121,100.246,641.734"/>
		<path style="clip-path:url(#SVGID_4_);fill:#5B5B5B;" d="M100.246,645.734c0,0.613-0.497,1.109-1.109,1.109
			c-0.613,0-1.11-0.496-1.11-1.109s0.497-1.109,1.11-1.109C99.749,644.625,100.246,645.121,100.246,645.734"/>
		<path style="clip-path:url(#SVGID_4_);fill:#5B5B5B;" d="M104.246,633.734c0,0.613-0.497,1.109-1.109,1.109
			c-0.613,0-1.11-0.496-1.11-1.109s0.497-1.109,1.11-1.109C103.749,632.625,104.246,633.121,104.246,633.734"/>
		<path style="clip-path:url(#SVGID_4_);fill:#5B5B5B;" d="M104.246,637.734c0,0.613-0.497,1.109-1.109,1.109
			c-0.613,0-1.11-0.496-1.11-1.109s0.497-1.109,1.11-1.109C103.749,636.625,104.246,637.121,104.246,637.734"/>
		<path style="clip-path:url(#SVGID_4_);fill:#5B5B5B;" d="M104.246,641.734c0,0.613-0.497,1.109-1.109,1.109
			c-0.613,0-1.11-0.496-1.11-1.109s0.497-1.109,1.11-1.109C103.749,640.625,104.246,641.121,104.246,641.734"/>
		<path style="clip-path:url(#SVGID_4_);fill:#5B5B5B;" d="M104.246,645.734c0,0.613-0.497,1.109-1.109,1.109
			c-0.613,0-1.11-0.496-1.11-1.109s0.497-1.109,1.11-1.109C103.749,644.625,104.246,645.121,104.246,645.734"/>
		<path style="clip-path:url(#SVGID_4_);fill:#5B5B5B;" d="M108.246,633.734c0,0.613-0.496,1.109-1.109,1.109
			c-0.614,0-1.11-0.496-1.11-1.109s0.496-1.109,1.11-1.109C107.75,632.625,108.246,633.121,108.246,633.734"/>
		<path style="clip-path:url(#SVGID_4_);fill:#5B5B5B;" d="M108.246,637.734c0,0.613-0.496,1.109-1.109,1.109
			c-0.614,0-1.11-0.496-1.11-1.109s0.496-1.109,1.11-1.109C107.75,636.625,108.246,637.121,108.246,637.734"/>
		<path style="clip-path:url(#SVGID_4_);fill:#5B5B5B;" d="M108.246,641.734c0,0.613-0.496,1.109-1.109,1.109
			c-0.614,0-1.11-0.496-1.11-1.109s0.496-1.109,1.11-1.109C107.75,640.625,108.246,641.121,108.246,641.734"/>
		<path style="clip-path:url(#SVGID_4_);fill:#5B5B5B;" d="M108.246,645.734c0,0.613-0.496,1.109-1.109,1.109
			c-0.614,0-1.11-0.496-1.11-1.109s0.496-1.109,1.11-1.109C107.75,644.625,108.246,645.121,108.246,645.734"/>
		<path style="clip-path:url(#SVGID_4_);fill:#5B5B5B;" d="M112.246,633.734c0,0.613-0.496,1.109-1.109,1.109
			c-0.614,0-1.11-0.496-1.11-1.109s0.496-1.109,1.11-1.109C111.75,632.625,112.246,633.121,112.246,633.734"/>
		<path style="clip-path:url(#SVGID_4_);fill:#5B5B5B;" d="M112.246,637.734c0,0.613-0.496,1.109-1.109,1.109
			c-0.614,0-1.11-0.496-1.11-1.109s0.496-1.109,1.11-1.109C111.75,636.625,112.246,637.121,112.246,637.734"/>
		<path style="clip-path:url(#SVGID_4_);fill:#5B5B5B;" d="M112.246,641.734c0,0.613-0.496,1.109-1.109,1.109
			c-0.614,0-1.11-0.496-1.11-1.109s0.496-1.109,1.11-1.109C111.75,640.625,112.246,641.121,112.246,641.734"/>
		<path style="clip-path:url(#SVGID_4_);fill:#5B5B5B;" d="M112.246,645.734c0,0.613-0.496,1.109-1.109,1.109
			c-0.614,0-1.11-0.496-1.11-1.109s0.496-1.109,1.11-1.109C111.75,644.625,112.246,645.121,112.246,645.734"/>
		<path style="clip-path:url(#SVGID_4_);fill:#5B5B5B;" d="M116.246,633.734c0,0.613-0.496,1.109-1.109,1.109
			c-0.614,0-1.11-0.496-1.11-1.109s0.496-1.109,1.11-1.109C115.75,632.625,116.246,633.121,116.246,633.734"/>
		<path style="clip-path:url(#SVGID_4_);fill:#5B5B5B;" d="M116.246,637.734c0,0.613-0.496,1.109-1.109,1.109
			c-0.614,0-1.11-0.496-1.11-1.109s0.496-1.109,1.11-1.109C115.75,636.625,116.246,637.121,116.246,637.734"/>
		<path style="clip-path:url(#SVGID_4_);fill:#5B5B5B;" d="M116.246,641.734c0,0.613-0.496,1.109-1.109,1.109
			c-0.614,0-1.11-0.496-1.11-1.109s0.496-1.109,1.11-1.109C115.75,640.625,116.246,641.121,116.246,641.734"/>
		<path style="clip-path:url(#SVGID_4_);fill:#5B5B5B;" d="M116.246,645.734c0,0.613-0.496,1.109-1.109,1.109
			c-0.614,0-1.11-0.496-1.11-1.109s0.496-1.109,1.11-1.109C115.75,644.625,116.246,645.121,116.246,645.734"/>
		<path style="clip-path:url(#SVGID_4_);fill:#5B5B5B;" d="M120.246,633.734c0,0.613-0.496,1.109-1.109,1.109
			c-0.614,0-1.11-0.496-1.11-1.109s0.496-1.109,1.11-1.109C119.75,632.625,120.246,633.121,120.246,633.734"/>
		<path style="clip-path:url(#SVGID_4_);fill:#5B5B5B;" d="M120.246,637.734c0,0.613-0.496,1.109-1.109,1.109
			c-0.614,0-1.11-0.496-1.11-1.109s0.496-1.109,1.11-1.109C119.75,636.625,120.246,637.121,120.246,637.734"/>
		<path style="clip-path:url(#SVGID_4_);fill:#5B5B5B;" d="M120.246,641.734c0,0.613-0.496,1.109-1.109,1.109
			c-0.614,0-1.11-0.496-1.11-1.109s0.496-1.109,1.11-1.109C119.75,640.625,120.246,641.121,120.246,641.734"/>
		<path style="clip-path:url(#SVGID_4_);fill:#5B5B5B;" d="M120.246,645.734c0,0.613-0.496,1.109-1.109,1.109
			c-0.614,0-1.11-0.496-1.11-1.109s0.496-1.109,1.11-1.109C119.75,644.625,120.246,645.121,120.246,645.734"/>
		<path style="clip-path:url(#SVGID_4_);fill:#5B5B5B;" d="M124.246,633.734c0,0.613-0.496,1.109-1.109,1.109
			c-0.614,0-1.11-0.496-1.11-1.109s0.496-1.109,1.11-1.109C123.75,632.625,124.246,633.121,124.246,633.734"/>
		<path style="clip-path:url(#SVGID_4_);fill:#5B5B5B;" d="M124.246,637.734c0,0.613-0.496,1.109-1.109,1.109
			c-0.614,0-1.11-0.496-1.11-1.109s0.496-1.109,1.11-1.109C123.75,636.625,124.246,637.121,124.246,637.734"/>
		<path style="clip-path:url(#SVGID_4_);fill:#5B5B5B;" d="M124.246,641.734c0,0.613-0.496,1.109-1.109,1.109
			c-0.614,0-1.11-0.496-1.11-1.109s0.496-1.109,1.11-1.109C123.75,640.625,124.246,641.121,124.246,641.734"/>
		<path style="clip-path:url(#SVGID_4_);fill:#5B5B5B;" d="M124.246,645.734c0,0.613-0.496,1.109-1.109,1.109
			c-0.614,0-1.11-0.496-1.11-1.109s0.496-1.109,1.11-1.109C123.75,644.625,124.246,645.121,124.246,645.734"/>
		<path style="clip-path:url(#SVGID_4_);fill:#5B5B5B;" d="M128.246,633.734c0,0.613-0.496,1.109-1.109,1.109
			c-0.614,0-1.11-0.496-1.11-1.109s0.496-1.109,1.11-1.109C127.75,632.625,128.246,633.121,128.246,633.734"/>
		<path style="clip-path:url(#SVGID_4_);fill:#5B5B5B;" d="M128.246,637.734c0,0.613-0.496,1.109-1.109,1.109
			c-0.614,0-1.11-0.496-1.11-1.109s0.496-1.109,1.11-1.109C127.75,636.625,128.246,637.121,128.246,637.734"/>
		<path style="clip-path:url(#SVGID_4_);fill:#5B5B5B;" d="M128.246,641.734c0,0.613-0.496,1.109-1.109,1.109
			c-0.614,0-1.11-0.496-1.11-1.109s0.496-1.109,1.11-1.109C127.75,640.625,128.246,641.121,128.246,641.734"/>
		<path style="clip-path:url(#SVGID_4_);fill:#5B5B5B;" d="M128.246,645.734c0,0.613-0.496,1.109-1.109,1.109
			c-0.614,0-1.11-0.496-1.11-1.109s0.496-1.109,1.11-1.109C127.75,644.625,128.246,645.121,128.246,645.734"/>
		<path style="clip-path:url(#SVGID_4_);fill:#5B5B5B;" d="M132.246,633.734c0,0.613-0.496,1.109-1.109,1.109
			c-0.614,0-1.11-0.496-1.11-1.109s0.496-1.109,1.11-1.109C131.75,632.625,132.246,633.121,132.246,633.734"/>
		<path style="clip-path:url(#SVGID_4_);fill:#5B5B5B;" d="M132.246,637.734c0,0.613-0.496,1.109-1.109,1.109
			c-0.614,0-1.11-0.496-1.11-1.109s0.496-1.109,1.11-1.109C131.75,636.625,132.246,637.121,132.246,637.734"/>
		<path style="clip-path:url(#SVGID_4_);fill:#5B5B5B;" d="M132.246,641.734c0,0.613-0.496,1.109-1.109,1.109
			c-0.614,0-1.11-0.496-1.11-1.109s0.496-1.109,1.11-1.109C131.75,640.625,132.246,641.121,132.246,641.734"/>
		<path style="clip-path:url(#SVGID_4_);fill:#5B5B5B;" d="M132.246,645.734c0,0.613-0.496,1.109-1.109,1.109
			c-0.614,0-1.11-0.496-1.11-1.109s0.496-1.109,1.11-1.109C131.75,644.625,132.246,645.121,132.246,645.734"/>
		<path style="clip-path:url(#SVGID_4_);fill:#5B5B5B;" d="M136.246,633.734c0,0.613-0.496,1.109-1.109,1.109
			c-0.614,0-1.11-0.496-1.11-1.109s0.496-1.109,1.11-1.109C135.75,632.625,136.246,633.121,136.246,633.734"/>
		<path style="clip-path:url(#SVGID_4_);fill:#5B5B5B;" d="M136.246,637.734c0,0.613-0.496,1.109-1.109,1.109
			c-0.614,0-1.11-0.496-1.11-1.109s0.496-1.109,1.11-1.109C135.75,636.625,136.246,637.121,136.246,637.734"/>
		<path style="clip-path:url(#SVGID_4_);fill:#5B5B5B;" d="M136.246,641.734c0,0.613-0.496,1.109-1.109,1.109
			c-0.614,0-1.11-0.496-1.11-1.109s0.496-1.109,1.11-1.109C135.75,640.625,136.246,641.121,136.246,641.734"/>
		<path style="clip-path:url(#SVGID_4_);fill:#5B5B5B;" d="M136.246,645.734c0,0.613-0.496,1.109-1.109,1.109
			c-0.614,0-1.11-0.496-1.11-1.109s0.496-1.109,1.11-1.109C135.75,644.625,136.246,645.121,136.246,645.734"/>
		<path style="clip-path:url(#SVGID_4_);fill:#5B5B5B;" d="M140.246,633.734c0,0.613-0.496,1.109-1.109,1.109
			c-0.614,0-1.11-0.496-1.11-1.109s0.496-1.109,1.11-1.109C139.75,632.625,140.246,633.121,140.246,633.734"/>
		<path style="clip-path:url(#SVGID_4_);fill:#5B5B5B;" d="M140.246,637.734c0,0.613-0.496,1.109-1.109,1.109
			c-0.614,0-1.11-0.496-1.11-1.109s0.496-1.109,1.11-1.109C139.75,636.625,140.246,637.121,140.246,637.734"/>
		<path style="clip-path:url(#SVGID_4_);fill:#5B5B5B;" d="M140.246,641.734c0,0.613-0.496,1.109-1.109,1.109
			c-0.614,0-1.11-0.496-1.11-1.109s0.496-1.109,1.11-1.109C139.75,640.625,140.246,641.121,140.246,641.734"/>
		<path style="clip-path:url(#SVGID_4_);fill:#5B5B5B;" d="M140.246,645.734c0,0.613-0.496,1.109-1.109,1.109
			c-0.614,0-1.11-0.496-1.11-1.109s0.496-1.109,1.11-1.109C139.75,644.625,140.246,645.121,140.246,645.734"/>
		<path style="clip-path:url(#SVGID_4_);fill:#5B5B5B;" d="M144.246,633.734c0,0.613-0.496,1.109-1.109,1.109
			c-0.614,0-1.11-0.496-1.11-1.109s0.496-1.109,1.11-1.109C143.75,632.625,144.246,633.121,144.246,633.734"/>
		<path style="clip-path:url(#SVGID_4_);fill:#5B5B5B;" d="M144.246,637.734c0,0.613-0.496,1.109-1.109,1.109
			c-0.614,0-1.11-0.496-1.11-1.109s0.496-1.109,1.11-1.109C143.75,636.625,144.246,637.121,144.246,637.734"/>
		<path style="clip-path:url(#SVGID_4_);fill:#5B5B5B;" d="M144.246,641.734c0,0.613-0.496,1.109-1.109,1.109
			c-0.614,0-1.11-0.496-1.11-1.109s0.496-1.109,1.11-1.109C143.75,640.625,144.246,641.121,144.246,641.734"/>
		<path style="clip-path:url(#SVGID_4_);fill:#5B5B5B;" d="M144.246,645.734c0,0.613-0.496,1.109-1.109,1.109
			c-0.614,0-1.11-0.496-1.11-1.109s0.496-1.109,1.11-1.109C143.75,644.625,144.246,645.121,144.246,645.734"/>
		<path style="clip-path:url(#SVGID_4_);fill:#5B5B5B;" d="M148.246,633.734c0,0.613-0.496,1.109-1.109,1.109
			c-0.614,0-1.11-0.496-1.11-1.109s0.496-1.109,1.11-1.109C147.75,632.625,148.246,633.121,148.246,633.734"/>
		<path style="clip-path:url(#SVGID_4_);fill:#5B5B5B;" d="M148.246,637.734c0,0.613-0.496,1.109-1.109,1.109
			c-0.614,0-1.11-0.496-1.11-1.109s0.496-1.109,1.11-1.109C147.75,636.625,148.246,637.121,148.246,637.734"/>
		<path style="clip-path:url(#SVGID_4_);fill:#5B5B5B;" d="M148.246,641.734c0,0.613-0.496,1.109-1.109,1.109
			c-0.614,0-1.11-0.496-1.11-1.109s0.496-1.109,1.11-1.109C147.75,640.625,148.246,641.121,148.246,641.734"/>
		<path style="clip-path:url(#SVGID_4_);fill:#5B5B5B;" d="M148.246,645.734c0,0.613-0.496,1.109-1.109,1.109
			c-0.614,0-1.11-0.496-1.11-1.109s0.496-1.109,1.11-1.109C147.75,644.625,148.246,645.121,148.246,645.734"/>
		<path style="clip-path:url(#SVGID_4_);fill:#5B5B5B;" d="M152.246,633.734c0,0.613-0.496,1.109-1.109,1.109
			c-0.614,0-1.11-0.496-1.11-1.109s0.496-1.109,1.11-1.109C151.75,632.625,152.246,633.121,152.246,633.734"/>
		<path style="clip-path:url(#SVGID_4_);fill:#5B5B5B;" d="M152.246,637.734c0,0.613-0.496,1.109-1.109,1.109
			c-0.614,0-1.11-0.496-1.11-1.109s0.496-1.109,1.11-1.109C151.75,636.625,152.246,637.121,152.246,637.734"/>
		<path style="clip-path:url(#SVGID_4_);fill:#5B5B5B;" d="M152.246,641.734c0,0.613-0.496,1.109-1.109,1.109
			c-0.614,0-1.11-0.496-1.11-1.109s0.496-1.109,1.11-1.109C151.75,640.625,152.246,641.121,152.246,641.734"/>
		<path style="clip-path:url(#SVGID_4_);fill:#5B5B5B;" d="M152.246,645.734c0,0.613-0.496,1.109-1.109,1.109
			c-0.614,0-1.11-0.496-1.11-1.109s0.496-1.109,1.11-1.109C151.75,644.625,152.246,645.121,152.246,645.734"/>
		<path style="clip-path:url(#SVGID_4_);fill:#5B5B5B;" d="M156.246,633.734c0,0.613-0.496,1.109-1.109,1.109
			c-0.614,0-1.11-0.496-1.11-1.109s0.496-1.109,1.11-1.109C155.75,632.625,156.246,633.121,156.246,633.734"/>
		<path style="clip-path:url(#SVGID_4_);fill:#5B5B5B;" d="M156.246,637.734c0,0.613-0.496,1.109-1.109,1.109
			c-0.614,0-1.11-0.496-1.11-1.109s0.496-1.109,1.11-1.109C155.75,636.625,156.246,637.121,156.246,637.734"/>
		<path style="clip-path:url(#SVGID_4_);fill:#5B5B5B;" d="M156.246,641.734c0,0.613-0.496,1.109-1.109,1.109
			c-0.614,0-1.11-0.496-1.11-1.109s0.496-1.109,1.11-1.109C155.75,640.625,156.246,641.121,156.246,641.734"/>
		<path style="clip-path:url(#SVGID_4_);fill:#5B5B5B;" d="M156.246,645.734c0,0.613-0.496,1.109-1.109,1.109
			c-0.614,0-1.11-0.496-1.11-1.109s0.496-1.109,1.11-1.109C155.75,644.625,156.246,645.121,156.246,645.734"/>
		<path style="clip-path:url(#SVGID_4_);fill:#5B5B5B;" d="M160.246,633.734c0,0.613-0.496,1.109-1.109,1.109
			c-0.614,0-1.11-0.496-1.11-1.109s0.496-1.109,1.11-1.109C159.75,632.625,160.246,633.121,160.246,633.734"/>
		<path style="clip-path:url(#SVGID_4_);fill:#5B5B5B;" d="M160.246,637.734c0,0.613-0.496,1.109-1.109,1.109
			c-0.614,0-1.11-0.496-1.11-1.109s0.496-1.109,1.11-1.109C159.75,636.625,160.246,637.121,160.246,637.734"/>
		<path style="clip-path:url(#SVGID_4_);fill:#5B5B5B;" d="M160.246,641.734c0,0.613-0.496,1.109-1.109,1.109
			c-0.614,0-1.11-0.496-1.11-1.109s0.496-1.109,1.11-1.109C159.75,640.625,160.246,641.121,160.246,641.734"/>
		<path style="clip-path:url(#SVGID_4_);fill:#5B5B5B;" d="M160.246,645.734c0,0.613-0.496,1.109-1.109,1.109
			c-0.614,0-1.11-0.496-1.11-1.109s0.496-1.109,1.11-1.109C159.75,644.625,160.246,645.121,160.246,645.734"/>
		<path style="clip-path:url(#SVGID_4_);fill:#5B5B5B;" d="M164.246,633.734c0,0.613-0.496,1.109-1.109,1.109
			c-0.614,0-1.11-0.496-1.11-1.109s0.496-1.109,1.11-1.109C163.75,632.625,164.246,633.121,164.246,633.734"/>
		<path style="clip-path:url(#SVGID_4_);fill:#5B5B5B;" d="M164.246,637.734c0,0.613-0.496,1.109-1.109,1.109
			c-0.614,0-1.11-0.496-1.11-1.109s0.496-1.109,1.11-1.109C163.75,636.625,164.246,637.121,164.246,637.734"/>
		<path style="clip-path:url(#SVGID_4_);fill:#5B5B5B;" d="M164.246,641.734c0,0.613-0.496,1.109-1.109,1.109
			c-0.614,0-1.11-0.496-1.11-1.109s0.496-1.109,1.11-1.109C163.75,640.625,164.246,641.121,164.246,641.734"/>
		<path style="clip-path:url(#SVGID_4_);fill:#5B5B5B;" d="M164.246,645.734c0,0.613-0.496,1.109-1.109,1.109
			c-0.614,0-1.11-0.496-1.11-1.109s0.496-1.109,1.11-1.109C163.75,644.625,164.246,645.121,164.246,645.734"/>
		<path style="clip-path:url(#SVGID_4_);fill:#5B5B5B;" d="M168.246,633.734c0,0.613-0.496,1.109-1.109,1.109
			s-1.109-0.496-1.109-1.109s0.496-1.109,1.109-1.109S168.246,633.121,168.246,633.734"/>
		<path style="clip-path:url(#SVGID_4_);fill:#5B5B5B;" d="M168.246,637.734c0,0.613-0.496,1.109-1.109,1.109
			s-1.109-0.496-1.109-1.109s0.496-1.109,1.109-1.109S168.246,637.121,168.246,637.734"/>
		<path style="clip-path:url(#SVGID_4_);fill:#5B5B5B;" d="M168.246,641.734c0,0.613-0.496,1.109-1.109,1.109
			s-1.109-0.496-1.109-1.109s0.496-1.109,1.109-1.109S168.246,641.121,168.246,641.734"/>
		<path style="clip-path:url(#SVGID_4_);fill:#5B5B5B;" d="M168.246,645.734c0,0.613-0.496,1.109-1.109,1.109
			s-1.109-0.496-1.109-1.109s0.496-1.109,1.109-1.109S168.246,645.121,168.246,645.734"/>
		<path style="clip-path:url(#SVGID_4_);fill:#5B5B5B;" d="M172.246,633.734c0,0.613-0.496,1.109-1.109,1.109
			s-1.109-0.496-1.109-1.109s0.496-1.109,1.109-1.109S172.246,633.121,172.246,633.734"/>
		<path style="clip-path:url(#SVGID_4_);fill:#5B5B5B;" d="M172.246,637.734c0,0.613-0.496,1.109-1.109,1.109
			s-1.109-0.496-1.109-1.109s0.496-1.109,1.109-1.109S172.246,637.121,172.246,637.734"/>
		<path style="clip-path:url(#SVGID_4_);fill:#5B5B5B;" d="M172.246,641.734c0,0.613-0.496,1.109-1.109,1.109
			s-1.109-0.496-1.109-1.109s0.496-1.109,1.109-1.109S172.246,641.121,172.246,641.734"/>
		<path style="clip-path:url(#SVGID_4_);fill:#5B5B5B;" d="M172.246,645.734c0,0.613-0.496,1.109-1.109,1.109
			s-1.109-0.496-1.109-1.109s0.496-1.109,1.109-1.109S172.246,645.121,172.246,645.734"/>
		<path style="clip-path:url(#SVGID_4_);fill:#5B5B5B;" d="M176.246,633.734c0,0.613-0.496,1.109-1.109,1.109
			s-1.109-0.496-1.109-1.109s0.496-1.109,1.109-1.109S176.246,633.121,176.246,633.734"/>
		<path style="clip-path:url(#SVGID_4_);fill:#5B5B5B;" d="M176.246,637.734c0,0.613-0.496,1.109-1.109,1.109
			s-1.109-0.496-1.109-1.109s0.496-1.109,1.109-1.109S176.246,637.121,176.246,637.734"/>
		<path style="clip-path:url(#SVGID_4_);fill:#5B5B5B;" d="M176.246,641.734c0,0.613-0.496,1.109-1.109,1.109
			s-1.109-0.496-1.109-1.109s0.496-1.109,1.109-1.109S176.246,641.121,176.246,641.734"/>
		<path style="clip-path:url(#SVGID_4_);fill:#5B5B5B;" d="M176.246,645.734c0,0.613-0.496,1.109-1.109,1.109
			s-1.109-0.496-1.109-1.109s0.496-1.109,1.109-1.109S176.246,645.121,176.246,645.734"/>
		<path style="clip-path:url(#SVGID_4_);fill:#5B5B5B;" d="M180.246,633.734c0,0.613-0.496,1.109-1.109,1.109
			s-1.109-0.496-1.109-1.109s0.496-1.109,1.109-1.109S180.246,633.121,180.246,633.734"/>
		<path style="clip-path:url(#SVGID_4_);fill:#5B5B5B;" d="M180.246,637.734c0,0.613-0.496,1.109-1.109,1.109
			s-1.109-0.496-1.109-1.109s0.496-1.109,1.109-1.109S180.246,637.121,180.246,637.734"/>
		<path style="clip-path:url(#SVGID_4_);fill:#5B5B5B;" d="M180.246,641.734c0,0.613-0.496,1.109-1.109,1.109
			s-1.109-0.496-1.109-1.109s0.496-1.109,1.109-1.109S180.246,641.121,180.246,641.734"/>
		<path style="clip-path:url(#SVGID_4_);fill:#5B5B5B;" d="M180.246,645.734c0,0.613-0.496,1.109-1.109,1.109
			s-1.109-0.496-1.109-1.109s0.496-1.109,1.109-1.109S180.246,645.121,180.246,645.734"/>
		<path style="clip-path:url(#SVGID_4_);fill:#5B5B5B;" d="M184.246,633.734c0,0.613-0.496,1.109-1.109,1.109
			s-1.109-0.496-1.109-1.109s0.496-1.109,1.109-1.109S184.246,633.121,184.246,633.734"/>
		<path style="clip-path:url(#SVGID_4_);fill:#5B5B5B;" d="M184.246,637.734c0,0.613-0.496,1.109-1.109,1.109
			s-1.109-0.496-1.109-1.109s0.496-1.109,1.109-1.109S184.246,637.121,184.246,637.734"/>
		<path style="clip-path:url(#SVGID_4_);fill:#5B5B5B;" d="M184.246,641.734c0,0.613-0.496,1.109-1.109,1.109
			s-1.109-0.496-1.109-1.109s0.496-1.109,1.109-1.109S184.246,641.121,184.246,641.734"/>
		<path style="clip-path:url(#SVGID_4_);fill:#5B5B5B;" d="M184.246,645.734c0,0.613-0.496,1.109-1.109,1.109
			s-1.109-0.496-1.109-1.109s0.496-1.109,1.109-1.109S184.246,645.121,184.246,645.734"/>
		<path style="clip-path:url(#SVGID_4_);fill:#5B5B5B;" d="M188.246,633.734c0,0.613-0.496,1.109-1.109,1.109
			s-1.109-0.496-1.109-1.109s0.496-1.109,1.109-1.109S188.246,633.121,188.246,633.734"/>
		<path style="clip-path:url(#SVGID_4_);fill:#5B5B5B;" d="M188.246,637.734c0,0.613-0.496,1.109-1.109,1.109
			s-1.109-0.496-1.109-1.109s0.496-1.109,1.109-1.109S188.246,637.121,188.246,637.734"/>
		<path style="clip-path:url(#SVGID_4_);fill:#5B5B5B;" d="M188.246,641.734c0,0.613-0.496,1.109-1.109,1.109
			s-1.109-0.496-1.109-1.109s0.496-1.109,1.109-1.109S188.246,641.121,188.246,641.734"/>
		<path style="clip-path:url(#SVGID_4_);fill:#5B5B5B;" d="M188.246,645.734c0,0.613-0.496,1.109-1.109,1.109
			s-1.109-0.496-1.109-1.109s0.496-1.109,1.109-1.109S188.246,645.121,188.246,645.734"/>
		<path style="clip-path:url(#SVGID_4_);fill:#5B5B5B;" d="M192.246,633.734c0,0.613-0.496,1.109-1.109,1.109
			s-1.109-0.496-1.109-1.109s0.496-1.109,1.109-1.109S192.246,633.121,192.246,633.734"/>
		<path style="clip-path:url(#SVGID_4_);fill:#5B5B5B;" d="M192.246,637.734c0,0.613-0.496,1.109-1.109,1.109
			s-1.109-0.496-1.109-1.109s0.496-1.109,1.109-1.109S192.246,637.121,192.246,637.734"/>
		<path style="clip-path:url(#SVGID_4_);fill:#5B5B5B;" d="M192.246,641.734c0,0.613-0.496,1.109-1.109,1.109
			s-1.109-0.496-1.109-1.109s0.496-1.109,1.109-1.109S192.246,641.121,192.246,641.734"/>
		<path style="clip-path:url(#SVGID_4_);fill:#5B5B5B;" d="M192.246,645.734c0,0.613-0.496,1.109-1.109,1.109
			s-1.109-0.496-1.109-1.109s0.496-1.109,1.109-1.109S192.246,645.121,192.246,645.734"/>
		<path style="clip-path:url(#SVGID_4_);fill:#5B5B5B;" d="M196.246,633.734c0,0.613-0.496,1.109-1.109,1.109
			s-1.109-0.496-1.109-1.109s0.496-1.109,1.109-1.109S196.246,633.121,196.246,633.734"/>
		<path style="clip-path:url(#SVGID_4_);fill:#5B5B5B;" d="M196.246,637.734c0,0.613-0.496,1.109-1.109,1.109
			s-1.109-0.496-1.109-1.109s0.496-1.109,1.109-1.109S196.246,637.121,196.246,637.734"/>
		<path style="clip-path:url(#SVGID_4_);fill:#5B5B5B;" d="M196.246,641.734c0,0.613-0.496,1.109-1.109,1.109
			s-1.109-0.496-1.109-1.109s0.496-1.109,1.109-1.109S196.246,641.121,196.246,641.734"/>
		<path style="clip-path:url(#SVGID_4_);fill:#5B5B5B;" d="M196.246,645.734c0,0.613-0.496,1.109-1.109,1.109
			s-1.109-0.496-1.109-1.109s0.496-1.109,1.109-1.109S196.246,645.121,196.246,645.734"/>
		<path style="clip-path:url(#SVGID_4_);fill:#5B5B5B;" d="M200.246,633.734c0,0.613-0.496,1.109-1.109,1.109
			s-1.109-0.496-1.109-1.109s0.496-1.109,1.109-1.109S200.246,633.121,200.246,633.734"/>
		<path style="clip-path:url(#SVGID_4_);fill:#5B5B5B;" d="M200.246,637.734c0,0.613-0.496,1.109-1.109,1.109
			s-1.109-0.496-1.109-1.109s0.496-1.109,1.109-1.109S200.246,637.121,200.246,637.734"/>
		<path style="clip-path:url(#SVGID_4_);fill:#5B5B5B;" d="M200.246,641.734c0,0.613-0.496,1.109-1.109,1.109
			s-1.109-0.496-1.109-1.109s0.496-1.109,1.109-1.109S200.246,641.121,200.246,641.734"/>
		<path style="clip-path:url(#SVGID_4_);fill:#5B5B5B;" d="M200.246,645.734c0,0.613-0.496,1.109-1.109,1.109
			s-1.109-0.496-1.109-1.109s0.496-1.109,1.109-1.109S200.246,645.121,200.246,645.734"/>
		<path style="clip-path:url(#SVGID_4_);fill:#5B5B5B;" d="M204.246,633.734c0,0.613-0.496,1.109-1.109,1.109
			s-1.109-0.496-1.109-1.109s0.496-1.109,1.109-1.109S204.246,633.121,204.246,633.734"/>
		<path style="clip-path:url(#SVGID_4_);fill:#5B5B5B;" d="M204.246,637.734c0,0.613-0.496,1.109-1.109,1.109
			s-1.109-0.496-1.109-1.109s0.496-1.109,1.109-1.109S204.246,637.121,204.246,637.734"/>
		<path style="clip-path:url(#SVGID_4_);fill:#5B5B5B;" d="M204.246,641.734c0,0.613-0.496,1.109-1.109,1.109
			s-1.109-0.496-1.109-1.109s0.496-1.109,1.109-1.109S204.246,641.121,204.246,641.734"/>
		<path style="clip-path:url(#SVGID_4_);fill:#5B5B5B;" d="M204.246,645.734c0,0.613-0.496,1.109-1.109,1.109
			s-1.109-0.496-1.109-1.109s0.496-1.109,1.109-1.109S204.246,645.121,204.246,645.734"/>
		<path style="clip-path:url(#SVGID_4_);fill:#5B5B5B;" d="M208.246,633.734c0,0.613-0.496,1.109-1.109,1.109
			s-1.109-0.496-1.109-1.109s0.496-1.109,1.109-1.109S208.246,633.121,208.246,633.734"/>
		<path style="clip-path:url(#SVGID_4_);fill:#5B5B5B;" d="M208.246,637.734c0,0.613-0.496,1.109-1.109,1.109
			s-1.109-0.496-1.109-1.109s0.496-1.109,1.109-1.109S208.246,637.121,208.246,637.734"/>
		<path style="clip-path:url(#SVGID_4_);fill:#5B5B5B;" d="M208.246,641.734c0,0.613-0.496,1.109-1.109,1.109
			s-1.109-0.496-1.109-1.109s0.496-1.109,1.109-1.109S208.246,641.121,208.246,641.734"/>
		<path style="clip-path:url(#SVGID_4_);fill:#5B5B5B;" d="M208.246,645.734c0,0.613-0.496,1.109-1.109,1.109
			s-1.109-0.496-1.109-1.109s0.496-1.109,1.109-1.109S208.246,645.121,208.246,645.734"/>
		<path style="clip-path:url(#SVGID_4_);fill:#5B5B5B;" d="M212.246,633.734c0,0.613-0.496,1.109-1.109,1.109
			s-1.109-0.496-1.109-1.109s0.496-1.109,1.109-1.109S212.246,633.121,212.246,633.734"/>
		<path style="clip-path:url(#SVGID_4_);fill:#5B5B5B;" d="M212.246,637.734c0,0.613-0.496,1.109-1.109,1.109
			s-1.109-0.496-1.109-1.109s0.496-1.109,1.109-1.109S212.246,637.121,212.246,637.734"/>
		<path style="clip-path:url(#SVGID_4_);fill:#5B5B5B;" d="M212.246,641.734c0,0.613-0.496,1.109-1.109,1.109
			s-1.109-0.496-1.109-1.109s0.496-1.109,1.109-1.109S212.246,641.121,212.246,641.734"/>
		<path style="clip-path:url(#SVGID_4_);fill:#5B5B5B;" d="M212.246,645.734c0,0.613-0.496,1.109-1.109,1.109
			s-1.109-0.496-1.109-1.109s0.496-1.109,1.109-1.109S212.246,645.121,212.246,645.734"/>
		<path style="clip-path:url(#SVGID_4_);fill:#5B5B5B;" d="M216.246,633.734c0,0.613-0.496,1.109-1.109,1.109
			s-1.109-0.496-1.109-1.109s0.496-1.109,1.109-1.109S216.246,633.121,216.246,633.734"/>
		<path style="clip-path:url(#SVGID_4_);fill:#5B5B5B;" d="M216.246,637.734c0,0.613-0.496,1.109-1.109,1.109
			s-1.109-0.496-1.109-1.109s0.496-1.109,1.109-1.109S216.246,637.121,216.246,637.734"/>
		<path style="clip-path:url(#SVGID_4_);fill:#5B5B5B;" d="M216.246,641.734c0,0.613-0.496,1.109-1.109,1.109
			s-1.109-0.496-1.109-1.109s0.496-1.109,1.109-1.109S216.246,641.121,216.246,641.734"/>
		<path style="clip-path:url(#SVGID_4_);fill:#5B5B5B;" d="M216.246,645.734c0,0.613-0.496,1.109-1.109,1.109
			s-1.109-0.496-1.109-1.109s0.496-1.109,1.109-1.109S216.246,645.121,216.246,645.734"/>
		<path style="clip-path:url(#SVGID_4_);fill:#5B5B5B;" d="M220.246,633.734c0,0.613-0.496,1.109-1.109,1.109
			s-1.109-0.496-1.109-1.109s0.496-1.109,1.109-1.109S220.246,633.121,220.246,633.734"/>
		<path style="clip-path:url(#SVGID_4_);fill:#5B5B5B;" d="M220.246,637.734c0,0.613-0.496,1.109-1.109,1.109
			s-1.109-0.496-1.109-1.109s0.496-1.109,1.109-1.109S220.246,637.121,220.246,637.734"/>
		<path style="clip-path:url(#SVGID_4_);fill:#5B5B5B;" d="M220.246,641.734c0,0.613-0.496,1.109-1.109,1.109
			s-1.109-0.496-1.109-1.109s0.496-1.109,1.109-1.109S220.246,641.121,220.246,641.734"/>
		<path style="clip-path:url(#SVGID_4_);fill:#5B5B5B;" d="M220.246,645.734c0,0.613-0.496,1.109-1.109,1.109
			s-1.109-0.496-1.109-1.109s0.496-1.109,1.109-1.109S220.246,645.121,220.246,645.734"/>
		<path style="clip-path:url(#SVGID_4_);fill:#5B5B5B;" d="M224.246,633.734c0,0.613-0.496,1.109-1.109,1.109
			s-1.109-0.496-1.109-1.109s0.496-1.109,1.109-1.109S224.246,633.121,224.246,633.734"/>
		<path style="clip-path:url(#SVGID_4_);fill:#5B5B5B;" d="M224.246,637.734c0,0.613-0.496,1.109-1.109,1.109
			s-1.109-0.496-1.109-1.109s0.496-1.109,1.109-1.109S224.246,637.121,224.246,637.734"/>
		<path style="clip-path:url(#SVGID_4_);fill:#5B5B5B;" d="M224.246,641.734c0,0.613-0.496,1.109-1.109,1.109
			s-1.109-0.496-1.109-1.109s0.496-1.109,1.109-1.109S224.246,641.121,224.246,641.734"/>
		<path style="clip-path:url(#SVGID_4_);fill:#5B5B5B;" d="M224.246,645.734c0,0.613-0.496,1.109-1.109,1.109
			s-1.109-0.496-1.109-1.109s0.496-1.109,1.109-1.109S224.246,645.121,224.246,645.734"/>
		<path style="clip-path:url(#SVGID_4_);fill:#5B5B5B;" d="M228.246,633.734c0,0.613-0.496,1.109-1.109,1.109
			s-1.109-0.496-1.109-1.109s0.496-1.109,1.109-1.109S228.246,633.121,228.246,633.734"/>
		<path style="clip-path:url(#SVGID_4_);fill:#5B5B5B;" d="M228.246,637.734c0,0.613-0.496,1.109-1.109,1.109
			s-1.109-0.496-1.109-1.109s0.496-1.109,1.109-1.109S228.246,637.121,228.246,637.734"/>
		<path style="clip-path:url(#SVGID_4_);fill:#5B5B5B;" d="M228.246,641.734c0,0.613-0.496,1.109-1.109,1.109
			s-1.109-0.496-1.109-1.109s0.496-1.109,1.109-1.109S228.246,641.121,228.246,641.734"/>
		<path style="clip-path:url(#SVGID_4_);fill:#5B5B5B;" d="M228.246,645.734c0,0.613-0.496,1.109-1.109,1.109
			s-1.109-0.496-1.109-1.109s0.496-1.109,1.109-1.109S228.246,645.121,228.246,645.734"/>
		<path style="clip-path:url(#SVGID_4_);fill:#5B5B5B;" d="M232.246,633.734c0,0.613-0.496,1.109-1.109,1.109
			s-1.109-0.496-1.109-1.109s0.496-1.109,1.109-1.109S232.246,633.121,232.246,633.734"/>
		<path style="clip-path:url(#SVGID_4_);fill:#5B5B5B;" d="M232.246,637.734c0,0.613-0.496,1.109-1.109,1.109
			s-1.109-0.496-1.109-1.109s0.496-1.109,1.109-1.109S232.246,637.121,232.246,637.734"/>
		<path style="clip-path:url(#SVGID_4_);fill:#5B5B5B;" d="M232.246,641.734c0,0.613-0.496,1.109-1.109,1.109
			s-1.109-0.496-1.109-1.109s0.496-1.109,1.109-1.109S232.246,641.121,232.246,641.734"/>
		<path style="clip-path:url(#SVGID_4_);fill:#5B5B5B;" d="M232.246,645.734c0,0.613-0.496,1.109-1.109,1.109
			s-1.109-0.496-1.109-1.109s0.496-1.109,1.109-1.109S232.246,645.121,232.246,645.734"/>
		<path style="clip-path:url(#SVGID_4_);fill:#5B5B5B;" d="M236.246,633.734c0,0.613-0.496,1.109-1.109,1.109
			s-1.109-0.496-1.109-1.109s0.496-1.109,1.109-1.109S236.246,633.121,236.246,633.734"/>
		<path style="clip-path:url(#SVGID_4_);fill:#5B5B5B;" d="M236.246,637.734c0,0.613-0.496,1.109-1.109,1.109
			s-1.109-0.496-1.109-1.109s0.496-1.109,1.109-1.109S236.246,637.121,236.246,637.734"/>
		<path style="clip-path:url(#SVGID_4_);fill:#5B5B5B;" d="M236.246,641.734c0,0.613-0.496,1.109-1.109,1.109
			s-1.109-0.496-1.109-1.109s0.496-1.109,1.109-1.109S236.246,641.121,236.246,641.734"/>
		<path style="clip-path:url(#SVGID_4_);fill:#5B5B5B;" d="M236.246,645.734c0,0.613-0.496,1.109-1.109,1.109
			s-1.109-0.496-1.109-1.109s0.496-1.109,1.109-1.109S236.246,645.121,236.246,645.734"/>
		<path style="clip-path:url(#SVGID_4_);fill:#5B5B5B;" d="M240.246,633.734c0,0.613-0.496,1.109-1.109,1.109
			s-1.109-0.496-1.109-1.109s0.496-1.109,1.109-1.109S240.246,633.121,240.246,633.734"/>
		<path style="clip-path:url(#SVGID_4_);fill:#5B5B5B;" d="M240.246,637.734c0,0.613-0.496,1.109-1.109,1.109
			s-1.109-0.496-1.109-1.109s0.496-1.109,1.109-1.109S240.246,637.121,240.246,637.734"/>
		<path style="clip-path:url(#SVGID_4_);fill:#5B5B5B;" d="M240.246,641.734c0,0.613-0.496,1.109-1.109,1.109
			s-1.109-0.496-1.109-1.109s0.496-1.109,1.109-1.109S240.246,641.121,240.246,641.734"/>
		<path style="clip-path:url(#SVGID_4_);fill:#5B5B5B;" d="M240.246,645.734c0,0.613-0.496,1.109-1.109,1.109
			s-1.109-0.496-1.109-1.109s0.496-1.109,1.109-1.109S240.246,645.121,240.246,645.734"/>
		<path style="clip-path:url(#SVGID_4_);fill:#5B5B5B;" d="M244.246,633.734c0,0.613-0.496,1.109-1.109,1.109
			s-1.109-0.496-1.109-1.109s0.496-1.109,1.109-1.109S244.246,633.121,244.246,633.734"/>
		<path style="clip-path:url(#SVGID_4_);fill:#5B5B5B;" d="M244.246,637.734c0,0.613-0.496,1.109-1.109,1.109
			s-1.109-0.496-1.109-1.109s0.496-1.109,1.109-1.109S244.246,637.121,244.246,637.734"/>
		<path style="clip-path:url(#SVGID_4_);fill:#5B5B5B;" d="M244.246,641.734c0,0.613-0.496,1.109-1.109,1.109
			s-1.109-0.496-1.109-1.109s0.496-1.109,1.109-1.109S244.246,641.121,244.246,641.734"/>
		<path style="clip-path:url(#SVGID_4_);fill:#5B5B5B;" d="M244.246,645.734c0,0.613-0.496,1.109-1.109,1.109
			s-1.109-0.496-1.109-1.109s0.496-1.109,1.109-1.109S244.246,645.121,244.246,645.734"/>
		<path style="clip-path:url(#SVGID_4_);fill:#5B5B5B;" d="M248.246,633.734c0,0.613-0.496,1.109-1.109,1.109
			s-1.109-0.496-1.109-1.109s0.496-1.109,1.109-1.109S248.246,633.121,248.246,633.734"/>
		<path style="clip-path:url(#SVGID_4_);fill:#5B5B5B;" d="M248.246,637.734c0,0.613-0.496,1.109-1.109,1.109
			s-1.109-0.496-1.109-1.109s0.496-1.109,1.109-1.109S248.246,637.121,248.246,637.734"/>
		<path style="clip-path:url(#SVGID_4_);fill:#5B5B5B;" d="M248.246,641.734c0,0.613-0.496,1.109-1.109,1.109
			s-1.109-0.496-1.109-1.109s0.496-1.109,1.109-1.109S248.246,641.121,248.246,641.734"/>
		<path style="clip-path:url(#SVGID_4_);fill:#5B5B5B;" d="M248.246,645.734c0,0.613-0.496,1.109-1.109,1.109
			s-1.109-0.496-1.109-1.109s0.496-1.109,1.109-1.109S248.246,645.121,248.246,645.734"/>
		<path style="clip-path:url(#SVGID_4_);fill:#5B5B5B;" d="M252.246,633.734c0,0.613-0.496,1.109-1.109,1.109
			s-1.109-0.496-1.109-1.109s0.496-1.109,1.109-1.109S252.246,633.121,252.246,633.734"/>
		<path style="clip-path:url(#SVGID_4_);fill:#5B5B5B;" d="M252.246,637.734c0,0.613-0.496,1.109-1.109,1.109
			s-1.109-0.496-1.109-1.109s0.496-1.109,1.109-1.109S252.246,637.121,252.246,637.734"/>
		<path style="clip-path:url(#SVGID_4_);fill:#5B5B5B;" d="M252.246,641.734c0,0.613-0.496,1.109-1.109,1.109
			s-1.109-0.496-1.109-1.109s0.496-1.109,1.109-1.109S252.246,641.121,252.246,641.734"/>
		<path style="clip-path:url(#SVGID_4_);fill:#5B5B5B;" d="M252.246,645.734c0,0.613-0.496,1.109-1.109,1.109
			s-1.109-0.496-1.109-1.109s0.496-1.109,1.109-1.109S252.246,645.121,252.246,645.734"/>
		<path style="clip-path:url(#SVGID_4_);fill:#5B5B5B;" d="M256.246,633.734c0,0.613-0.496,1.109-1.109,1.109
			s-1.109-0.496-1.109-1.109s0.496-1.109,1.109-1.109S256.246,633.121,256.246,633.734"/>
		<path style="clip-path:url(#SVGID_4_);fill:#5B5B5B;" d="M256.246,637.734c0,0.613-0.496,1.109-1.109,1.109
			s-1.109-0.496-1.109-1.109s0.496-1.109,1.109-1.109S256.246,637.121,256.246,637.734"/>
		<path style="clip-path:url(#SVGID_4_);fill:#5B5B5B;" d="M256.246,641.734c0,0.613-0.496,1.109-1.109,1.109
			s-1.109-0.496-1.109-1.109s0.496-1.109,1.109-1.109S256.246,641.121,256.246,641.734"/>
		<path style="clip-path:url(#SVGID_4_);fill:#5B5B5B;" d="M256.246,645.734c0,0.613-0.496,1.109-1.109,1.109
			s-1.109-0.496-1.109-1.109s0.496-1.109,1.109-1.109S256.246,645.121,256.246,645.734"/>
		<path style="clip-path:url(#SVGID_4_);fill:#5B5B5B;" d="M260.246,633.734c0,0.613-0.496,1.109-1.109,1.109
			s-1.109-0.496-1.109-1.109s0.496-1.109,1.109-1.109S260.246,633.121,260.246,633.734"/>
		<path style="clip-path:url(#SVGID_4_);fill:#5B5B5B;" d="M260.246,637.734c0,0.613-0.496,1.109-1.109,1.109
			s-1.109-0.496-1.109-1.109s0.496-1.109,1.109-1.109S260.246,637.121,260.246,637.734"/>
		<path style="clip-path:url(#SVGID_4_);fill:#5B5B5B;" d="M260.246,641.734c0,0.613-0.496,1.109-1.109,1.109
			s-1.109-0.496-1.109-1.109s0.496-1.109,1.109-1.109S260.246,641.121,260.246,641.734"/>
		<path style="clip-path:url(#SVGID_4_);fill:#5B5B5B;" d="M260.246,645.734c0,0.613-0.496,1.109-1.109,1.109
			s-1.109-0.496-1.109-1.109s0.496-1.109,1.109-1.109S260.246,645.121,260.246,645.734"/>
		<path style="clip-path:url(#SVGID_4_);fill:#5B5B5B;" d="M72.246,26.734c0,0.613-0.497,1.109-1.109,1.109
			c-0.613,0-1.11-0.496-1.11-1.109c0-0.613,0.497-1.109,1.11-1.109C71.749,25.625,72.246,26.122,72.246,26.734"/>
		<path style="clip-path:url(#SVGID_4_);fill:#5B5B5B;" d="M72.246,30.734c0,0.613-0.497,1.109-1.109,1.109
			c-0.613,0-1.11-0.496-1.11-1.109c0-0.613,0.497-1.109,1.11-1.109C71.749,29.625,72.246,30.122,72.246,30.734"/>
		<path style="clip-path:url(#SVGID_4_);fill:#5B5B5B;" d="M72.246,34.734c0,0.613-0.497,1.109-1.109,1.109
			c-0.613,0-1.11-0.496-1.11-1.109c0-0.613,0.497-1.109,1.11-1.109C71.749,33.625,72.246,34.122,72.246,34.734"/>
		<path style="clip-path:url(#SVGID_4_);fill:#5B5B5B;" d="M72.246,38.734c0,0.613-0.497,1.109-1.109,1.109
			c-0.613,0-1.11-0.496-1.11-1.109c0-0.613,0.497-1.109,1.11-1.109C71.749,37.625,72.246,38.122,72.246,38.734"/>
		<path style="clip-path:url(#SVGID_4_);fill:#5B5B5B;" d="M76.246,26.734c0,0.613-0.497,1.109-1.109,1.109
			c-0.613,0-1.11-0.496-1.11-1.109c0-0.613,0.497-1.109,1.11-1.109C75.749,25.625,76.246,26.122,76.246,26.734"/>
		<path style="clip-path:url(#SVGID_4_);fill:#5B5B5B;" d="M76.246,30.734c0,0.613-0.497,1.109-1.109,1.109
			c-0.613,0-1.11-0.496-1.11-1.109c0-0.613,0.497-1.109,1.11-1.109C75.749,29.625,76.246,30.122,76.246,30.734"/>
		<path style="clip-path:url(#SVGID_4_);fill:#5B5B5B;" d="M76.246,34.734c0,0.613-0.497,1.109-1.109,1.109
			c-0.613,0-1.11-0.496-1.11-1.109c0-0.613,0.497-1.109,1.11-1.109C75.749,33.625,76.246,34.122,76.246,34.734"/>
		<path style="clip-path:url(#SVGID_4_);fill:#5B5B5B;" d="M76.246,38.734c0,0.613-0.497,1.109-1.109,1.109
			c-0.613,0-1.11-0.496-1.11-1.109c0-0.613,0.497-1.109,1.11-1.109C75.749,37.625,76.246,38.122,76.246,38.734"/>
		<path style="clip-path:url(#SVGID_4_);fill:#5B5B5B;" d="M80.246,26.734c0,0.613-0.497,1.109-1.109,1.109
			c-0.613,0-1.11-0.496-1.11-1.109c0-0.613,0.497-1.109,1.11-1.109C79.749,25.625,80.246,26.122,80.246,26.734"/>
		<path style="clip-path:url(#SVGID_4_);fill:#5B5B5B;" d="M80.246,30.734c0,0.613-0.497,1.109-1.109,1.109
			c-0.613,0-1.11-0.496-1.11-1.109c0-0.613,0.497-1.109,1.11-1.109C79.749,29.625,80.246,30.122,80.246,30.734"/>
		<path style="clip-path:url(#SVGID_4_);fill:#5B5B5B;" d="M80.246,34.734c0,0.613-0.497,1.109-1.109,1.109
			c-0.613,0-1.11-0.496-1.11-1.109c0-0.613,0.497-1.109,1.11-1.109C79.749,33.625,80.246,34.122,80.246,34.734"/>
		<path style="clip-path:url(#SVGID_4_);fill:#5B5B5B;" d="M80.246,38.734c0,0.613-0.497,1.109-1.109,1.109
			c-0.613,0-1.11-0.496-1.11-1.109c0-0.613,0.497-1.109,1.11-1.109C79.749,37.625,80.246,38.122,80.246,38.734"/>
		<path style="clip-path:url(#SVGID_4_);fill:#5B5B5B;" d="M84.246,26.734c0,0.613-0.497,1.109-1.109,1.109
			c-0.613,0-1.11-0.496-1.11-1.109c0-0.613,0.497-1.109,1.11-1.109C83.749,25.625,84.246,26.122,84.246,26.734"/>
		<path style="clip-path:url(#SVGID_4_);fill:#5B5B5B;" d="M84.246,30.734c0,0.613-0.497,1.109-1.109,1.109
			c-0.613,0-1.11-0.496-1.11-1.109c0-0.613,0.497-1.109,1.11-1.109C83.749,29.625,84.246,30.122,84.246,30.734"/>
		<path style="clip-path:url(#SVGID_4_);fill:#5B5B5B;" d="M84.246,34.734c0,0.613-0.497,1.109-1.109,1.109
			c-0.613,0-1.11-0.496-1.11-1.109c0-0.613,0.497-1.109,1.11-1.109C83.749,33.625,84.246,34.122,84.246,34.734"/>
		<path style="clip-path:url(#SVGID_4_);fill:#5B5B5B;" d="M84.246,38.734c0,0.613-0.497,1.109-1.109,1.109
			c-0.613,0-1.11-0.496-1.11-1.109c0-0.613,0.497-1.109,1.11-1.109C83.749,37.625,84.246,38.122,84.246,38.734"/>
		<path style="clip-path:url(#SVGID_4_);fill:#5B5B5B;" d="M88.246,26.734c0,0.613-0.497,1.109-1.109,1.109
			c-0.613,0-1.11-0.496-1.11-1.109c0-0.613,0.497-1.109,1.11-1.109C87.749,25.625,88.246,26.122,88.246,26.734"/>
		<path style="clip-path:url(#SVGID_4_);fill:#5B5B5B;" d="M88.246,30.734c0,0.613-0.497,1.109-1.109,1.109
			c-0.613,0-1.11-0.496-1.11-1.109c0-0.613,0.497-1.109,1.11-1.109C87.749,29.625,88.246,30.122,88.246,30.734"/>
		<path style="clip-path:url(#SVGID_4_);fill:#5B5B5B;" d="M88.246,34.734c0,0.613-0.497,1.109-1.109,1.109
			c-0.613,0-1.11-0.496-1.11-1.109c0-0.613,0.497-1.109,1.11-1.109C87.749,33.625,88.246,34.122,88.246,34.734"/>
		<path style="clip-path:url(#SVGID_4_);fill:#5B5B5B;" d="M88.246,38.734c0,0.613-0.497,1.109-1.109,1.109
			c-0.613,0-1.11-0.496-1.11-1.109c0-0.613,0.497-1.109,1.11-1.109C87.749,37.625,88.246,38.122,88.246,38.734"/>
		<path style="clip-path:url(#SVGID_4_);fill:#5B5B5B;" d="M92.246,26.734c0,0.613-0.497,1.109-1.109,1.109
			c-0.613,0-1.11-0.496-1.11-1.109c0-0.613,0.497-1.109,1.11-1.109C91.749,25.625,92.246,26.122,92.246,26.734"/>
		<path style="clip-path:url(#SVGID_4_);fill:#5B5B5B;" d="M92.246,30.734c0,0.613-0.497,1.109-1.109,1.109
			c-0.613,0-1.11-0.496-1.11-1.109c0-0.613,0.497-1.109,1.11-1.109C91.749,29.625,92.246,30.122,92.246,30.734"/>
		<path style="clip-path:url(#SVGID_4_);fill:#5B5B5B;" d="M92.246,34.734c0,0.613-0.497,1.109-1.109,1.109
			c-0.613,0-1.11-0.496-1.11-1.109c0-0.613,0.497-1.109,1.11-1.109C91.749,33.625,92.246,34.122,92.246,34.734"/>
		<path style="clip-path:url(#SVGID_4_);fill:#5B5B5B;" d="M92.246,38.734c0,0.613-0.497,1.109-1.109,1.109
			c-0.613,0-1.11-0.496-1.11-1.109c0-0.613,0.497-1.109,1.11-1.109C91.749,37.625,92.246,38.122,92.246,38.734"/>
		<path style="clip-path:url(#SVGID_4_);fill:#5B5B5B;" d="M96.246,26.734c0,0.613-0.497,1.109-1.109,1.109
			c-0.613,0-1.11-0.496-1.11-1.109c0-0.613,0.497-1.109,1.11-1.109C95.749,25.625,96.246,26.122,96.246,26.734"/>
		<path style="clip-path:url(#SVGID_4_);fill:#5B5B5B;" d="M96.246,30.734c0,0.613-0.497,1.109-1.109,1.109
			c-0.613,0-1.11-0.496-1.11-1.109c0-0.613,0.497-1.109,1.11-1.109C95.749,29.625,96.246,30.122,96.246,30.734"/>
		<path style="clip-path:url(#SVGID_4_);fill:#5B5B5B;" d="M96.246,34.734c0,0.613-0.497,1.109-1.109,1.109
			c-0.613,0-1.11-0.496-1.11-1.109c0-0.613,0.497-1.109,1.11-1.109C95.749,33.625,96.246,34.122,96.246,34.734"/>
		<path style="clip-path:url(#SVGID_4_);fill:#5B5B5B;" d="M96.246,38.734c0,0.613-0.497,1.109-1.109,1.109
			c-0.613,0-1.11-0.496-1.11-1.109c0-0.613,0.497-1.109,1.11-1.109C95.749,37.625,96.246,38.122,96.246,38.734"/>
		<path style="clip-path:url(#SVGID_4_);fill:#5B5B5B;" d="M100.246,26.734c0,0.613-0.497,1.109-1.109,1.109
			c-0.613,0-1.11-0.496-1.11-1.109c0-0.613,0.497-1.109,1.11-1.109C99.749,25.625,100.246,26.122,100.246,26.734"/>
		<path style="clip-path:url(#SVGID_4_);fill:#5B5B5B;" d="M100.246,30.734c0,0.613-0.497,1.109-1.109,1.109
			c-0.613,0-1.11-0.496-1.11-1.109c0-0.613,0.497-1.109,1.11-1.109C99.749,29.625,100.246,30.122,100.246,30.734"/>
		<path style="clip-path:url(#SVGID_4_);fill:#5B5B5B;" d="M100.246,34.734c0,0.613-0.497,1.109-1.109,1.109
			c-0.613,0-1.11-0.496-1.11-1.109c0-0.613,0.497-1.109,1.11-1.109C99.749,33.625,100.246,34.122,100.246,34.734"/>
		<path style="clip-path:url(#SVGID_4_);fill:#5B5B5B;" d="M100.246,38.734c0,0.613-0.497,1.109-1.109,1.109
			c-0.613,0-1.11-0.496-1.11-1.109c0-0.613,0.497-1.109,1.11-1.109C99.749,37.625,100.246,38.122,100.246,38.734"/>
		<path style="clip-path:url(#SVGID_4_);fill:#5B5B5B;" d="M104.246,26.734c0,0.613-0.497,1.109-1.109,1.109
			c-0.613,0-1.11-0.496-1.11-1.109c0-0.613,0.497-1.109,1.11-1.109C103.749,25.625,104.246,26.122,104.246,26.734"/>
		<path style="clip-path:url(#SVGID_4_);fill:#5B5B5B;" d="M104.246,30.734c0,0.613-0.497,1.109-1.109,1.109
			c-0.613,0-1.11-0.496-1.11-1.109c0-0.613,0.497-1.109,1.11-1.109C103.749,29.625,104.246,30.122,104.246,30.734"/>
		<path style="clip-path:url(#SVGID_4_);fill:#5B5B5B;" d="M104.246,34.734c0,0.613-0.497,1.109-1.109,1.109
			c-0.613,0-1.11-0.496-1.11-1.109c0-0.613,0.497-1.109,1.11-1.109C103.749,33.625,104.246,34.122,104.246,34.734"/>
		<path style="clip-path:url(#SVGID_4_);fill:#5B5B5B;" d="M104.246,38.734c0,0.613-0.497,1.109-1.109,1.109
			c-0.613,0-1.11-0.496-1.11-1.109c0-0.613,0.497-1.109,1.11-1.109C103.749,37.625,104.246,38.122,104.246,38.734"/>
		<path style="clip-path:url(#SVGID_4_);fill:#5B5B5B;" d="M108.246,26.734c0,0.613-0.496,1.109-1.109,1.109
			c-0.614,0-1.11-0.496-1.11-1.109c0-0.613,0.496-1.109,1.11-1.109C107.75,25.625,108.246,26.122,108.246,26.734"/>
		<path style="clip-path:url(#SVGID_4_);fill:#5B5B5B;" d="M108.246,30.734c0,0.613-0.496,1.109-1.109,1.109
			c-0.614,0-1.11-0.496-1.11-1.109c0-0.613,0.496-1.109,1.11-1.109C107.75,29.625,108.246,30.122,108.246,30.734"/>
		<path style="clip-path:url(#SVGID_4_);fill:#5B5B5B;" d="M108.246,34.734c0,0.613-0.496,1.109-1.109,1.109
			c-0.614,0-1.11-0.496-1.11-1.109c0-0.613,0.496-1.109,1.11-1.109C107.75,33.625,108.246,34.122,108.246,34.734"/>
		<path style="clip-path:url(#SVGID_4_);fill:#5B5B5B;" d="M108.246,38.734c0,0.613-0.496,1.109-1.109,1.109
			c-0.614,0-1.11-0.496-1.11-1.109c0-0.613,0.496-1.109,1.11-1.109C107.75,37.625,108.246,38.122,108.246,38.734"/>
		<path style="clip-path:url(#SVGID_4_);fill:#5B5B5B;" d="M112.246,26.734c0,0.613-0.496,1.109-1.109,1.109
			c-0.614,0-1.11-0.496-1.11-1.109c0-0.613,0.496-1.109,1.11-1.109C111.75,25.625,112.246,26.122,112.246,26.734"/>
		<path style="clip-path:url(#SVGID_4_);fill:#5B5B5B;" d="M112.246,30.734c0,0.613-0.496,1.109-1.109,1.109
			c-0.614,0-1.11-0.496-1.11-1.109c0-0.613,0.496-1.109,1.11-1.109C111.75,29.625,112.246,30.122,112.246,30.734"/>
		<path style="clip-path:url(#SVGID_4_);fill:#5B5B5B;" d="M112.246,34.734c0,0.613-0.496,1.109-1.109,1.109
			c-0.614,0-1.11-0.496-1.11-1.109c0-0.613,0.496-1.109,1.11-1.109C111.75,33.625,112.246,34.122,112.246,34.734"/>
		<path style="clip-path:url(#SVGID_4_);fill:#5B5B5B;" d="M112.246,38.734c0,0.613-0.496,1.109-1.109,1.109
			c-0.614,0-1.11-0.496-1.11-1.109c0-0.613,0.496-1.109,1.11-1.109C111.75,37.625,112.246,38.122,112.246,38.734"/>
		<path style="clip-path:url(#SVGID_4_);fill:#5B5B5B;" d="M116.246,26.734c0,0.613-0.496,1.109-1.109,1.109
			c-0.614,0-1.11-0.496-1.11-1.109c0-0.613,0.496-1.109,1.11-1.109C115.75,25.625,116.246,26.122,116.246,26.734"/>
		<path style="clip-path:url(#SVGID_4_);fill:#5B5B5B;" d="M116.246,30.734c0,0.613-0.496,1.109-1.109,1.109
			c-0.614,0-1.11-0.496-1.11-1.109c0-0.613,0.496-1.109,1.11-1.109C115.75,29.625,116.246,30.122,116.246,30.734"/>
		<path style="clip-path:url(#SVGID_4_);fill:#5B5B5B;" d="M116.246,34.734c0,0.613-0.496,1.109-1.109,1.109
			c-0.614,0-1.11-0.496-1.11-1.109c0-0.613,0.496-1.109,1.11-1.109C115.75,33.625,116.246,34.122,116.246,34.734"/>
		<path style="clip-path:url(#SVGID_4_);fill:#5B5B5B;" d="M116.246,38.734c0,0.613-0.496,1.109-1.109,1.109
			c-0.614,0-1.11-0.496-1.11-1.109c0-0.613,0.496-1.109,1.11-1.109C115.75,37.625,116.246,38.122,116.246,38.734"/>
		<path style="clip-path:url(#SVGID_4_);fill:#5B5B5B;" d="M120.246,26.734c0,0.613-0.496,1.109-1.109,1.109
			c-0.614,0-1.11-0.496-1.11-1.109c0-0.613,0.496-1.109,1.11-1.109C119.75,25.625,120.246,26.122,120.246,26.734"/>
		<path style="clip-path:url(#SVGID_4_);fill:#5B5B5B;" d="M120.246,30.734c0,0.613-0.496,1.109-1.109,1.109
			c-0.614,0-1.11-0.496-1.11-1.109c0-0.613,0.496-1.109,1.11-1.109C119.75,29.625,120.246,30.122,120.246,30.734"/>
		<path style="clip-path:url(#SVGID_4_);fill:#5B5B5B;" d="M120.246,34.734c0,0.613-0.496,1.109-1.109,1.109
			c-0.614,0-1.11-0.496-1.11-1.109c0-0.613,0.496-1.109,1.11-1.109C119.75,33.625,120.246,34.122,120.246,34.734"/>
		<path style="clip-path:url(#SVGID_4_);fill:#5B5B5B;" d="M120.246,38.734c0,0.613-0.496,1.109-1.109,1.109
			c-0.614,0-1.11-0.496-1.11-1.109c0-0.613,0.496-1.109,1.11-1.109C119.75,37.625,120.246,38.122,120.246,38.734"/>
		<path style="clip-path:url(#SVGID_4_);fill:#5B5B5B;" d="M124.246,26.734c0,0.613-0.496,1.109-1.109,1.109
			c-0.614,0-1.11-0.496-1.11-1.109c0-0.613,0.496-1.109,1.11-1.109C123.75,25.625,124.246,26.122,124.246,26.734"/>
		<path style="clip-path:url(#SVGID_4_);fill:#5B5B5B;" d="M124.246,30.734c0,0.613-0.496,1.109-1.109,1.109
			c-0.614,0-1.11-0.496-1.11-1.109c0-0.613,0.496-1.109,1.11-1.109C123.75,29.625,124.246,30.122,124.246,30.734"/>
		<path style="clip-path:url(#SVGID_4_);fill:#5B5B5B;" d="M124.246,34.734c0,0.613-0.496,1.109-1.109,1.109
			c-0.614,0-1.11-0.496-1.11-1.109c0-0.613,0.496-1.109,1.11-1.109C123.75,33.625,124.246,34.122,124.246,34.734"/>
		<path style="clip-path:url(#SVGID_4_);fill:#5B5B5B;" d="M124.246,38.734c0,0.613-0.496,1.109-1.109,1.109
			c-0.614,0-1.11-0.496-1.11-1.109c0-0.613,0.496-1.109,1.11-1.109C123.75,37.625,124.246,38.122,124.246,38.734"/>
		<path style="clip-path:url(#SVGID_4_);fill:#5B5B5B;" d="M128.246,26.734c0,0.613-0.496,1.109-1.109,1.109
			c-0.614,0-1.11-0.496-1.11-1.109c0-0.613,0.496-1.109,1.11-1.109C127.75,25.625,128.246,26.122,128.246,26.734"/>
		<path style="clip-path:url(#SVGID_4_);fill:#5B5B5B;" d="M128.246,30.734c0,0.613-0.496,1.109-1.109,1.109
			c-0.614,0-1.11-0.496-1.11-1.109c0-0.613,0.496-1.109,1.11-1.109C127.75,29.625,128.246,30.122,128.246,30.734"/>
		<path style="clip-path:url(#SVGID_4_);fill:#5B5B5B;" d="M128.246,34.734c0,0.613-0.496,1.109-1.109,1.109
			c-0.614,0-1.11-0.496-1.11-1.109c0-0.613,0.496-1.109,1.11-1.109C127.75,33.625,128.246,34.122,128.246,34.734"/>
		<path style="clip-path:url(#SVGID_4_);fill:#5B5B5B;" d="M128.246,38.734c0,0.613-0.496,1.109-1.109,1.109
			c-0.614,0-1.11-0.496-1.11-1.109c0-0.613,0.496-1.109,1.11-1.109C127.75,37.625,128.246,38.122,128.246,38.734"/>
		<path style="clip-path:url(#SVGID_4_);fill:#5B5B5B;" d="M132.246,26.734c0,0.613-0.496,1.109-1.109,1.109
			c-0.614,0-1.11-0.496-1.11-1.109c0-0.613,0.496-1.109,1.11-1.109C131.75,25.625,132.246,26.122,132.246,26.734"/>
		<path style="clip-path:url(#SVGID_4_);fill:#5B5B5B;" d="M132.246,30.734c0,0.613-0.496,1.109-1.109,1.109
			c-0.614,0-1.11-0.496-1.11-1.109c0-0.613,0.496-1.109,1.11-1.109C131.75,29.625,132.246,30.122,132.246,30.734"/>
		<path style="clip-path:url(#SVGID_4_);fill:#5B5B5B;" d="M132.246,34.734c0,0.613-0.496,1.109-1.109,1.109
			c-0.614,0-1.11-0.496-1.11-1.109c0-0.613,0.496-1.109,1.11-1.109C131.75,33.625,132.246,34.122,132.246,34.734"/>
		<path style="clip-path:url(#SVGID_4_);fill:#5B5B5B;" d="M132.246,38.734c0,0.613-0.496,1.109-1.109,1.109
			c-0.614,0-1.11-0.496-1.11-1.109c0-0.613,0.496-1.109,1.11-1.109C131.75,37.625,132.246,38.122,132.246,38.734"/>
		<path style="clip-path:url(#SVGID_4_);fill:#5B5B5B;" d="M136.246,26.734c0,0.613-0.496,1.109-1.109,1.109
			c-0.614,0-1.11-0.496-1.11-1.109c0-0.613,0.496-1.109,1.11-1.109C135.75,25.625,136.246,26.122,136.246,26.734"/>
		<path style="clip-path:url(#SVGID_4_);fill:#5B5B5B;" d="M136.246,30.734c0,0.613-0.496,1.109-1.109,1.109
			c-0.614,0-1.11-0.496-1.11-1.109c0-0.613,0.496-1.109,1.11-1.109C135.75,29.625,136.246,30.122,136.246,30.734"/>
		<path style="clip-path:url(#SVGID_4_);fill:#5B5B5B;" d="M136.246,34.734c0,0.613-0.496,1.109-1.109,1.109
			c-0.614,0-1.11-0.496-1.11-1.109c0-0.613,0.496-1.109,1.11-1.109C135.75,33.625,136.246,34.122,136.246,34.734"/>
		<path style="clip-path:url(#SVGID_4_);fill:#5B5B5B;" d="M136.246,38.734c0,0.613-0.496,1.109-1.109,1.109
			c-0.614,0-1.11-0.496-1.11-1.109c0-0.613,0.496-1.109,1.11-1.109C135.75,37.625,136.246,38.122,136.246,38.734"/>
		<path style="clip-path:url(#SVGID_4_);fill:#5B5B5B;" d="M140.246,26.734c0,0.613-0.496,1.109-1.109,1.109
			c-0.614,0-1.11-0.496-1.11-1.109c0-0.613,0.496-1.109,1.11-1.109C139.75,25.625,140.246,26.122,140.246,26.734"/>
		<path style="clip-path:url(#SVGID_4_);fill:#5B5B5B;" d="M140.246,30.734c0,0.613-0.496,1.109-1.109,1.109
			c-0.614,0-1.11-0.496-1.11-1.109c0-0.613,0.496-1.109,1.11-1.109C139.75,29.625,140.246,30.122,140.246,30.734"/>
		<path style="clip-path:url(#SVGID_4_);fill:#5B5B5B;" d="M140.246,34.734c0,0.613-0.496,1.109-1.109,1.109
			c-0.614,0-1.11-0.496-1.11-1.109c0-0.613,0.496-1.109,1.11-1.109C139.75,33.625,140.246,34.122,140.246,34.734"/>
		<path style="clip-path:url(#SVGID_4_);fill:#5B5B5B;" d="M140.246,38.734c0,0.613-0.496,1.109-1.109,1.109
			c-0.614,0-1.11-0.496-1.11-1.109c0-0.613,0.496-1.109,1.11-1.109C139.75,37.625,140.246,38.122,140.246,38.734"/>
		<path style="clip-path:url(#SVGID_4_);fill:#5B5B5B;" d="M144.246,26.734c0,0.613-0.496,1.109-1.109,1.109
			c-0.614,0-1.11-0.496-1.11-1.109c0-0.613,0.496-1.109,1.11-1.109C143.75,25.625,144.246,26.122,144.246,26.734"/>
		<path style="clip-path:url(#SVGID_4_);fill:#5B5B5B;" d="M144.246,30.734c0,0.613-0.496,1.109-1.109,1.109
			c-0.614,0-1.11-0.496-1.11-1.109c0-0.613,0.496-1.109,1.11-1.109C143.75,29.625,144.246,30.122,144.246,30.734"/>
		<path style="clip-path:url(#SVGID_4_);fill:#5B5B5B;" d="M144.246,34.734c0,0.613-0.496,1.109-1.109,1.109
			c-0.614,0-1.11-0.496-1.11-1.109c0-0.613,0.496-1.109,1.11-1.109C143.75,33.625,144.246,34.122,144.246,34.734"/>
		<path style="clip-path:url(#SVGID_4_);fill:#5B5B5B;" d="M144.246,38.734c0,0.613-0.496,1.109-1.109,1.109
			c-0.614,0-1.11-0.496-1.11-1.109c0-0.613,0.496-1.109,1.11-1.109C143.75,37.625,144.246,38.122,144.246,38.734"/>
		<path style="clip-path:url(#SVGID_4_);fill:#5B5B5B;" d="M148.246,26.734c0,0.613-0.496,1.109-1.109,1.109
			c-0.614,0-1.11-0.496-1.11-1.109c0-0.613,0.496-1.109,1.11-1.109C147.75,25.625,148.246,26.122,148.246,26.734"/>
		<path style="clip-path:url(#SVGID_4_);fill:#5B5B5B;" d="M148.246,30.734c0,0.613-0.496,1.109-1.109,1.109
			c-0.614,0-1.11-0.496-1.11-1.109c0-0.613,0.496-1.109,1.11-1.109C147.75,29.625,148.246,30.122,148.246,30.734"/>
		<path style="clip-path:url(#SVGID_4_);fill:#5B5B5B;" d="M148.246,34.734c0,0.613-0.496,1.109-1.109,1.109
			c-0.614,0-1.11-0.496-1.11-1.109c0-0.613,0.496-1.109,1.11-1.109C147.75,33.625,148.246,34.122,148.246,34.734"/>
		<path style="clip-path:url(#SVGID_4_);fill:#5B5B5B;" d="M148.246,38.734c0,0.613-0.496,1.109-1.109,1.109
			c-0.614,0-1.11-0.496-1.11-1.109c0-0.613,0.496-1.109,1.11-1.109C147.75,37.625,148.246,38.122,148.246,38.734"/>
		<path style="clip-path:url(#SVGID_4_);fill:#5B5B5B;" d="M152.246,26.734c0,0.613-0.496,1.109-1.109,1.109
			c-0.614,0-1.11-0.496-1.11-1.109c0-0.613,0.496-1.109,1.11-1.109C151.75,25.625,152.246,26.122,152.246,26.734"/>
		<path style="clip-path:url(#SVGID_4_);fill:#5B5B5B;" d="M152.246,30.734c0,0.613-0.496,1.109-1.109,1.109
			c-0.614,0-1.11-0.496-1.11-1.109c0-0.613,0.496-1.109,1.11-1.109C151.75,29.625,152.246,30.122,152.246,30.734"/>
		<path style="clip-path:url(#SVGID_4_);fill:#5B5B5B;" d="M152.246,34.734c0,0.613-0.496,1.109-1.109,1.109
			c-0.614,0-1.11-0.496-1.11-1.109c0-0.613,0.496-1.109,1.11-1.109C151.75,33.625,152.246,34.122,152.246,34.734"/>
		<path style="clip-path:url(#SVGID_4_);fill:#5B5B5B;" d="M152.246,38.734c0,0.613-0.496,1.109-1.109,1.109
			c-0.614,0-1.11-0.496-1.11-1.109c0-0.613,0.496-1.109,1.11-1.109C151.75,37.625,152.246,38.122,152.246,38.734"/>
		<path style="clip-path:url(#SVGID_4_);fill:#5B5B5B;" d="M156.246,26.734c0,0.613-0.496,1.109-1.109,1.109
			c-0.614,0-1.11-0.496-1.11-1.109c0-0.613,0.496-1.109,1.11-1.109C155.75,25.625,156.246,26.122,156.246,26.734"/>
		<path style="clip-path:url(#SVGID_4_);fill:#5B5B5B;" d="M156.246,30.734c0,0.613-0.496,1.109-1.109,1.109
			c-0.614,0-1.11-0.496-1.11-1.109c0-0.613,0.496-1.109,1.11-1.109C155.75,29.625,156.246,30.122,156.246,30.734"/>
		<path style="clip-path:url(#SVGID_4_);fill:#5B5B5B;" d="M156.246,34.734c0,0.613-0.496,1.109-1.109,1.109
			c-0.614,0-1.11-0.496-1.11-1.109c0-0.613,0.496-1.109,1.11-1.109C155.75,33.625,156.246,34.122,156.246,34.734"/>
		<path style="clip-path:url(#SVGID_4_);fill:#5B5B5B;" d="M156.246,38.734c0,0.613-0.496,1.109-1.109,1.109
			c-0.614,0-1.11-0.496-1.11-1.109c0-0.613,0.496-1.109,1.11-1.109C155.75,37.625,156.246,38.122,156.246,38.734"/>
		<path style="clip-path:url(#SVGID_4_);fill:#5B5B5B;" d="M160.246,26.734c0,0.613-0.496,1.109-1.109,1.109
			c-0.614,0-1.11-0.496-1.11-1.109c0-0.613,0.496-1.109,1.11-1.109C159.75,25.625,160.246,26.122,160.246,26.734"/>
		<path style="clip-path:url(#SVGID_4_);fill:#5B5B5B;" d="M160.246,30.734c0,0.613-0.496,1.109-1.109,1.109
			c-0.614,0-1.11-0.496-1.11-1.109c0-0.613,0.496-1.109,1.11-1.109C159.75,29.625,160.246,30.122,160.246,30.734"/>
		<path style="clip-path:url(#SVGID_4_);fill:#5B5B5B;" d="M160.246,34.734c0,0.613-0.496,1.109-1.109,1.109
			c-0.614,0-1.11-0.496-1.11-1.109c0-0.613,0.496-1.109,1.11-1.109C159.75,33.625,160.246,34.122,160.246,34.734"/>
		<path style="clip-path:url(#SVGID_4_);fill:#5B5B5B;" d="M160.246,38.734c0,0.613-0.496,1.109-1.109,1.109
			c-0.614,0-1.11-0.496-1.11-1.109c0-0.613,0.496-1.109,1.11-1.109C159.75,37.625,160.246,38.122,160.246,38.734"/>
		<path style="clip-path:url(#SVGID_4_);fill:#5B5B5B;" d="M164.246,26.734c0,0.613-0.496,1.109-1.109,1.109
			c-0.614,0-1.11-0.496-1.11-1.109c0-0.613,0.496-1.109,1.11-1.109C163.75,25.625,164.246,26.122,164.246,26.734"/>
		<path style="clip-path:url(#SVGID_4_);fill:#5B5B5B;" d="M164.246,30.734c0,0.613-0.496,1.109-1.109,1.109
			c-0.614,0-1.11-0.496-1.11-1.109c0-0.613,0.496-1.109,1.11-1.109C163.75,29.625,164.246,30.122,164.246,30.734"/>
		<path style="clip-path:url(#SVGID_4_);fill:#5B5B5B;" d="M164.246,34.734c0,0.613-0.496,1.109-1.109,1.109
			c-0.614,0-1.11-0.496-1.11-1.109c0-0.613,0.496-1.109,1.11-1.109C163.75,33.625,164.246,34.122,164.246,34.734"/>
		<path style="clip-path:url(#SVGID_4_);fill:#5B5B5B;" d="M164.246,38.734c0,0.613-0.496,1.109-1.109,1.109
			c-0.614,0-1.11-0.496-1.11-1.109c0-0.613,0.496-1.109,1.11-1.109C163.75,37.625,164.246,38.122,164.246,38.734"/>
		<path style="clip-path:url(#SVGID_4_);fill:#5B5B5B;" d="M168.246,26.734c0,0.613-0.496,1.109-1.109,1.109
			s-1.109-0.496-1.109-1.109c0-0.613,0.496-1.109,1.109-1.109S168.246,26.122,168.246,26.734"/>
		<path style="clip-path:url(#SVGID_4_);fill:#5B5B5B;" d="M168.246,30.734c0,0.613-0.496,1.109-1.109,1.109
			s-1.109-0.496-1.109-1.109c0-0.613,0.496-1.109,1.109-1.109S168.246,30.122,168.246,30.734"/>
		<path style="clip-path:url(#SVGID_4_);fill:#5B5B5B;" d="M168.246,34.734c0,0.613-0.496,1.109-1.109,1.109
			s-1.109-0.496-1.109-1.109c0-0.613,0.496-1.109,1.109-1.109S168.246,34.122,168.246,34.734"/>
		<path style="clip-path:url(#SVGID_4_);fill:#5B5B5B;" d="M168.246,38.734c0,0.613-0.496,1.109-1.109,1.109
			s-1.109-0.496-1.109-1.109c0-0.613,0.496-1.109,1.109-1.109S168.246,38.122,168.246,38.734"/>
		<path style="clip-path:url(#SVGID_4_);fill:#5B5B5B;" d="M172.246,26.734c0,0.613-0.496,1.109-1.109,1.109
			s-1.109-0.496-1.109-1.109c0-0.613,0.496-1.109,1.109-1.109S172.246,26.122,172.246,26.734"/>
		<path style="clip-path:url(#SVGID_4_);fill:#5B5B5B;" d="M172.246,30.734c0,0.613-0.496,1.109-1.109,1.109
			s-1.109-0.496-1.109-1.109c0-0.613,0.496-1.109,1.109-1.109S172.246,30.122,172.246,30.734"/>
		<path style="clip-path:url(#SVGID_4_);fill:#5B5B5B;" d="M172.246,34.734c0,0.613-0.496,1.109-1.109,1.109
			s-1.109-0.496-1.109-1.109c0-0.613,0.496-1.109,1.109-1.109S172.246,34.122,172.246,34.734"/>
		<path style="clip-path:url(#SVGID_4_);fill:#5B5B5B;" d="M172.246,38.734c0,0.613-0.496,1.109-1.109,1.109
			s-1.109-0.496-1.109-1.109c0-0.613,0.496-1.109,1.109-1.109S172.246,38.122,172.246,38.734"/>
		<path style="clip-path:url(#SVGID_4_);fill:#5B5B5B;" d="M176.246,26.734c0,0.613-0.496,1.109-1.109,1.109
			s-1.109-0.496-1.109-1.109c0-0.613,0.496-1.109,1.109-1.109S176.246,26.122,176.246,26.734"/>
		<path style="clip-path:url(#SVGID_4_);fill:#5B5B5B;" d="M176.246,30.734c0,0.613-0.496,1.109-1.109,1.109
			s-1.109-0.496-1.109-1.109c0-0.613,0.496-1.109,1.109-1.109S176.246,30.122,176.246,30.734"/>
		<path style="clip-path:url(#SVGID_4_);fill:#5B5B5B;" d="M176.246,34.734c0,0.613-0.496,1.109-1.109,1.109
			s-1.109-0.496-1.109-1.109c0-0.613,0.496-1.109,1.109-1.109S176.246,34.122,176.246,34.734"/>
		<path style="clip-path:url(#SVGID_4_);fill:#5B5B5B;" d="M176.246,38.734c0,0.613-0.496,1.109-1.109,1.109
			s-1.109-0.496-1.109-1.109c0-0.613,0.496-1.109,1.109-1.109S176.246,38.122,176.246,38.734"/>
		<path style="clip-path:url(#SVGID_4_);fill:#5B5B5B;" d="M180.246,26.734c0,0.613-0.496,1.109-1.109,1.109
			s-1.109-0.496-1.109-1.109c0-0.613,0.496-1.109,1.109-1.109S180.246,26.122,180.246,26.734"/>
		<path style="clip-path:url(#SVGID_4_);fill:#5B5B5B;" d="M180.246,30.734c0,0.613-0.496,1.109-1.109,1.109
			s-1.109-0.496-1.109-1.109c0-0.613,0.496-1.109,1.109-1.109S180.246,30.122,180.246,30.734"/>
		<path style="clip-path:url(#SVGID_4_);fill:#5B5B5B;" d="M180.246,34.734c0,0.613-0.496,1.109-1.109,1.109
			s-1.109-0.496-1.109-1.109c0-0.613,0.496-1.109,1.109-1.109S180.246,34.122,180.246,34.734"/>
		<path style="clip-path:url(#SVGID_4_);fill:#5B5B5B;" d="M180.246,38.734c0,0.613-0.496,1.109-1.109,1.109
			s-1.109-0.496-1.109-1.109c0-0.613,0.496-1.109,1.109-1.109S180.246,38.122,180.246,38.734"/>
		<path style="clip-path:url(#SVGID_4_);fill:#5B5B5B;" d="M184.246,26.734c0,0.613-0.496,1.109-1.109,1.109
			s-1.109-0.496-1.109-1.109c0-0.613,0.496-1.109,1.109-1.109S184.246,26.122,184.246,26.734"/>
		<path style="clip-path:url(#SVGID_4_);fill:#5B5B5B;" d="M184.246,30.734c0,0.613-0.496,1.109-1.109,1.109
			s-1.109-0.496-1.109-1.109c0-0.613,0.496-1.109,1.109-1.109S184.246,30.122,184.246,30.734"/>
		<path style="clip-path:url(#SVGID_4_);fill:#5B5B5B;" d="M184.246,34.734c0,0.613-0.496,1.109-1.109,1.109
			s-1.109-0.496-1.109-1.109c0-0.613,0.496-1.109,1.109-1.109S184.246,34.122,184.246,34.734"/>
		<path style="clip-path:url(#SVGID_4_);fill:#5B5B5B;" d="M184.246,38.734c0,0.613-0.496,1.109-1.109,1.109
			s-1.109-0.496-1.109-1.109c0-0.613,0.496-1.109,1.109-1.109S184.246,38.122,184.246,38.734"/>
		<path style="clip-path:url(#SVGID_4_);fill:#5B5B5B;" d="M188.246,26.734c0,0.613-0.496,1.109-1.109,1.109
			s-1.109-0.496-1.109-1.109c0-0.613,0.496-1.109,1.109-1.109S188.246,26.122,188.246,26.734"/>
		<path style="clip-path:url(#SVGID_4_);fill:#5B5B5B;" d="M188.246,30.734c0,0.613-0.496,1.109-1.109,1.109
			s-1.109-0.496-1.109-1.109c0-0.613,0.496-1.109,1.109-1.109S188.246,30.122,188.246,30.734"/>
		<path style="clip-path:url(#SVGID_4_);fill:#5B5B5B;" d="M188.246,34.734c0,0.613-0.496,1.109-1.109,1.109
			s-1.109-0.496-1.109-1.109c0-0.613,0.496-1.109,1.109-1.109S188.246,34.122,188.246,34.734"/>
		<path style="clip-path:url(#SVGID_4_);fill:#5B5B5B;" d="M188.246,38.734c0,0.613-0.496,1.109-1.109,1.109
			s-1.109-0.496-1.109-1.109c0-0.613,0.496-1.109,1.109-1.109S188.246,38.122,188.246,38.734"/>
		<path style="clip-path:url(#SVGID_4_);fill:#5B5B5B;" d="M192.246,26.734c0,0.613-0.496,1.109-1.109,1.109
			s-1.109-0.496-1.109-1.109c0-0.613,0.496-1.109,1.109-1.109S192.246,26.122,192.246,26.734"/>
		<path style="clip-path:url(#SVGID_4_);fill:#5B5B5B;" d="M192.246,30.734c0,0.613-0.496,1.109-1.109,1.109
			s-1.109-0.496-1.109-1.109c0-0.613,0.496-1.109,1.109-1.109S192.246,30.122,192.246,30.734"/>
		<path style="clip-path:url(#SVGID_4_);fill:#5B5B5B;" d="M192.246,34.734c0,0.613-0.496,1.109-1.109,1.109
			s-1.109-0.496-1.109-1.109c0-0.613,0.496-1.109,1.109-1.109S192.246,34.122,192.246,34.734"/>
		<path style="clip-path:url(#SVGID_4_);fill:#5B5B5B;" d="M192.246,38.734c0,0.613-0.496,1.109-1.109,1.109
			s-1.109-0.496-1.109-1.109c0-0.613,0.496-1.109,1.109-1.109S192.246,38.122,192.246,38.734"/>
		<path style="clip-path:url(#SVGID_4_);fill:#5B5B5B;" d="M196.246,26.734c0,0.613-0.496,1.109-1.109,1.109
			s-1.109-0.496-1.109-1.109c0-0.613,0.496-1.109,1.109-1.109S196.246,26.122,196.246,26.734"/>
		<path style="clip-path:url(#SVGID_4_);fill:#5B5B5B;" d="M196.246,30.734c0,0.613-0.496,1.109-1.109,1.109
			s-1.109-0.496-1.109-1.109c0-0.613,0.496-1.109,1.109-1.109S196.246,30.122,196.246,30.734"/>
		<path style="clip-path:url(#SVGID_4_);fill:#5B5B5B;" d="M196.246,34.734c0,0.613-0.496,1.109-1.109,1.109
			s-1.109-0.496-1.109-1.109c0-0.613,0.496-1.109,1.109-1.109S196.246,34.122,196.246,34.734"/>
		<path style="clip-path:url(#SVGID_4_);fill:#5B5B5B;" d="M196.246,38.734c0,0.613-0.496,1.109-1.109,1.109
			s-1.109-0.496-1.109-1.109c0-0.613,0.496-1.109,1.109-1.109S196.246,38.122,196.246,38.734"/>
		<path style="clip-path:url(#SVGID_4_);fill:#5B5B5B;" d="M200.246,26.734c0,0.613-0.496,1.109-1.109,1.109
			s-1.109-0.496-1.109-1.109c0-0.613,0.496-1.109,1.109-1.109S200.246,26.122,200.246,26.734"/>
		<path style="clip-path:url(#SVGID_4_);fill:#5B5B5B;" d="M200.246,30.734c0,0.613-0.496,1.109-1.109,1.109
			s-1.109-0.496-1.109-1.109c0-0.613,0.496-1.109,1.109-1.109S200.246,30.122,200.246,30.734"/>
		<path style="clip-path:url(#SVGID_4_);fill:#5B5B5B;" d="M200.246,34.734c0,0.613-0.496,1.109-1.109,1.109
			s-1.109-0.496-1.109-1.109c0-0.613,0.496-1.109,1.109-1.109S200.246,34.122,200.246,34.734"/>
		<path style="clip-path:url(#SVGID_4_);fill:#5B5B5B;" d="M200.246,38.734c0,0.613-0.496,1.109-1.109,1.109
			s-1.109-0.496-1.109-1.109c0-0.613,0.496-1.109,1.109-1.109S200.246,38.122,200.246,38.734"/>
		<path style="clip-path:url(#SVGID_4_);fill:#5B5B5B;" d="M204.246,26.734c0,0.613-0.496,1.109-1.109,1.109
			s-1.109-0.496-1.109-1.109c0-0.613,0.496-1.109,1.109-1.109S204.246,26.122,204.246,26.734"/>
		<path style="clip-path:url(#SVGID_4_);fill:#5B5B5B;" d="M204.246,30.734c0,0.613-0.496,1.109-1.109,1.109
			s-1.109-0.496-1.109-1.109c0-0.613,0.496-1.109,1.109-1.109S204.246,30.122,204.246,30.734"/>
		<path style="clip-path:url(#SVGID_4_);fill:#5B5B5B;" d="M204.246,34.734c0,0.613-0.496,1.109-1.109,1.109
			s-1.109-0.496-1.109-1.109c0-0.613,0.496-1.109,1.109-1.109S204.246,34.122,204.246,34.734"/>
		<path style="clip-path:url(#SVGID_4_);fill:#5B5B5B;" d="M204.246,38.734c0,0.613-0.496,1.109-1.109,1.109
			s-1.109-0.496-1.109-1.109c0-0.613,0.496-1.109,1.109-1.109S204.246,38.122,204.246,38.734"/>
		<path style="clip-path:url(#SVGID_4_);fill:#5B5B5B;" d="M208.246,26.734c0,0.613-0.496,1.109-1.109,1.109
			s-1.109-0.496-1.109-1.109c0-0.613,0.496-1.109,1.109-1.109S208.246,26.122,208.246,26.734"/>
		<path style="clip-path:url(#SVGID_4_);fill:#5B5B5B;" d="M208.246,30.734c0,0.613-0.496,1.109-1.109,1.109
			s-1.109-0.496-1.109-1.109c0-0.613,0.496-1.109,1.109-1.109S208.246,30.122,208.246,30.734"/>
		<path style="clip-path:url(#SVGID_4_);fill:#5B5B5B;" d="M208.246,34.734c0,0.613-0.496,1.109-1.109,1.109
			s-1.109-0.496-1.109-1.109c0-0.613,0.496-1.109,1.109-1.109S208.246,34.122,208.246,34.734"/>
		<path style="clip-path:url(#SVGID_4_);fill:#5B5B5B;" d="M208.246,38.734c0,0.613-0.496,1.109-1.109,1.109
			s-1.109-0.496-1.109-1.109c0-0.613,0.496-1.109,1.109-1.109S208.246,38.122,208.246,38.734"/>
		<path style="clip-path:url(#SVGID_4_);fill:#5B5B5B;" d="M212.246,26.734c0,0.613-0.496,1.109-1.109,1.109
			s-1.109-0.496-1.109-1.109c0-0.613,0.496-1.109,1.109-1.109S212.246,26.122,212.246,26.734"/>
		<path style="clip-path:url(#SVGID_4_);fill:#5B5B5B;" d="M212.246,30.734c0,0.613-0.496,1.109-1.109,1.109
			s-1.109-0.496-1.109-1.109c0-0.613,0.496-1.109,1.109-1.109S212.246,30.122,212.246,30.734"/>
		<path style="clip-path:url(#SVGID_4_);fill:#5B5B5B;" d="M212.246,34.734c0,0.613-0.496,1.109-1.109,1.109
			s-1.109-0.496-1.109-1.109c0-0.613,0.496-1.109,1.109-1.109S212.246,34.122,212.246,34.734"/>
		<path style="clip-path:url(#SVGID_4_);fill:#5B5B5B;" d="M212.246,38.734c0,0.613-0.496,1.109-1.109,1.109
			s-1.109-0.496-1.109-1.109c0-0.613,0.496-1.109,1.109-1.109S212.246,38.122,212.246,38.734"/>
		<path style="clip-path:url(#SVGID_4_);fill:#5B5B5B;" d="M216.246,26.734c0,0.613-0.496,1.109-1.109,1.109
			s-1.109-0.496-1.109-1.109c0-0.613,0.496-1.109,1.109-1.109S216.246,26.122,216.246,26.734"/>
		<path style="clip-path:url(#SVGID_4_);fill:#5B5B5B;" d="M216.246,30.734c0,0.613-0.496,1.109-1.109,1.109
			s-1.109-0.496-1.109-1.109c0-0.613,0.496-1.109,1.109-1.109S216.246,30.122,216.246,30.734"/>
		<path style="clip-path:url(#SVGID_4_);fill:#5B5B5B;" d="M216.246,34.734c0,0.613-0.496,1.109-1.109,1.109
			s-1.109-0.496-1.109-1.109c0-0.613,0.496-1.109,1.109-1.109S216.246,34.122,216.246,34.734"/>
		<path style="clip-path:url(#SVGID_4_);fill:#5B5B5B;" d="M216.246,38.734c0,0.613-0.496,1.109-1.109,1.109
			s-1.109-0.496-1.109-1.109c0-0.613,0.496-1.109,1.109-1.109S216.246,38.122,216.246,38.734"/>
		<path style="clip-path:url(#SVGID_4_);fill:#5B5B5B;" d="M220.246,26.734c0,0.613-0.496,1.109-1.109,1.109
			s-1.109-0.496-1.109-1.109c0-0.613,0.496-1.109,1.109-1.109S220.246,26.122,220.246,26.734"/>
		<path style="clip-path:url(#SVGID_4_);fill:#5B5B5B;" d="M220.246,30.734c0,0.613-0.496,1.109-1.109,1.109
			s-1.109-0.496-1.109-1.109c0-0.613,0.496-1.109,1.109-1.109S220.246,30.122,220.246,30.734"/>
		<path style="clip-path:url(#SVGID_4_);fill:#5B5B5B;" d="M220.246,34.734c0,0.613-0.496,1.109-1.109,1.109
			s-1.109-0.496-1.109-1.109c0-0.613,0.496-1.109,1.109-1.109S220.246,34.122,220.246,34.734"/>
		<path style="clip-path:url(#SVGID_4_);fill:#5B5B5B;" d="M220.246,38.734c0,0.613-0.496,1.109-1.109,1.109
			s-1.109-0.496-1.109-1.109c0-0.613,0.496-1.109,1.109-1.109S220.246,38.122,220.246,38.734"/>
		<path style="clip-path:url(#SVGID_4_);fill:#5B5B5B;" d="M224.246,26.734c0,0.613-0.496,1.109-1.109,1.109
			s-1.109-0.496-1.109-1.109c0-0.613,0.496-1.109,1.109-1.109S224.246,26.122,224.246,26.734"/>
		<path style="clip-path:url(#SVGID_4_);fill:#5B5B5B;" d="M224.246,30.734c0,0.613-0.496,1.109-1.109,1.109
			s-1.109-0.496-1.109-1.109c0-0.613,0.496-1.109,1.109-1.109S224.246,30.122,224.246,30.734"/>
		<path style="clip-path:url(#SVGID_4_);fill:#5B5B5B;" d="M224.246,34.734c0,0.613-0.496,1.109-1.109,1.109
			s-1.109-0.496-1.109-1.109c0-0.613,0.496-1.109,1.109-1.109S224.246,34.122,224.246,34.734"/>
		<path style="clip-path:url(#SVGID_4_);fill:#5B5B5B;" d="M224.246,38.734c0,0.613-0.496,1.109-1.109,1.109
			s-1.109-0.496-1.109-1.109c0-0.613,0.496-1.109,1.109-1.109S224.246,38.122,224.246,38.734"/>
		<path style="clip-path:url(#SVGID_4_);fill:#5B5B5B;" d="M228.246,26.734c0,0.613-0.496,1.109-1.109,1.109
			s-1.109-0.496-1.109-1.109c0-0.613,0.496-1.109,1.109-1.109S228.246,26.122,228.246,26.734"/>
		<path style="clip-path:url(#SVGID_4_);fill:#5B5B5B;" d="M228.246,30.734c0,0.613-0.496,1.109-1.109,1.109
			s-1.109-0.496-1.109-1.109c0-0.613,0.496-1.109,1.109-1.109S228.246,30.122,228.246,30.734"/>
		<path style="clip-path:url(#SVGID_4_);fill:#5B5B5B;" d="M228.246,34.734c0,0.613-0.496,1.109-1.109,1.109
			s-1.109-0.496-1.109-1.109c0-0.613,0.496-1.109,1.109-1.109S228.246,34.122,228.246,34.734"/>
		<path style="clip-path:url(#SVGID_4_);fill:#5B5B5B;" d="M228.246,38.734c0,0.613-0.496,1.109-1.109,1.109
			s-1.109-0.496-1.109-1.109c0-0.613,0.496-1.109,1.109-1.109S228.246,38.122,228.246,38.734"/>
		<path style="clip-path:url(#SVGID_4_);fill:#5B5B5B;" d="M232.246,26.734c0,0.613-0.496,1.109-1.109,1.109
			s-1.109-0.496-1.109-1.109c0-0.613,0.496-1.109,1.109-1.109S232.246,26.122,232.246,26.734"/>
		<path style="clip-path:url(#SVGID_4_);fill:#5B5B5B;" d="M232.246,30.734c0,0.613-0.496,1.109-1.109,1.109
			s-1.109-0.496-1.109-1.109c0-0.613,0.496-1.109,1.109-1.109S232.246,30.122,232.246,30.734"/>
		<path style="clip-path:url(#SVGID_4_);fill:#5B5B5B;" d="M232.246,34.734c0,0.613-0.496,1.109-1.109,1.109
			s-1.109-0.496-1.109-1.109c0-0.613,0.496-1.109,1.109-1.109S232.246,34.122,232.246,34.734"/>
		<path style="clip-path:url(#SVGID_4_);fill:#5B5B5B;" d="M232.246,38.734c0,0.613-0.496,1.109-1.109,1.109
			s-1.109-0.496-1.109-1.109c0-0.613,0.496-1.109,1.109-1.109S232.246,38.122,232.246,38.734"/>
		<path style="clip-path:url(#SVGID_4_);fill:#5B5B5B;" d="M236.246,26.734c0,0.613-0.496,1.109-1.109,1.109
			s-1.109-0.496-1.109-1.109c0-0.613,0.496-1.109,1.109-1.109S236.246,26.122,236.246,26.734"/>
		<path style="clip-path:url(#SVGID_4_);fill:#5B5B5B;" d="M236.246,30.734c0,0.613-0.496,1.109-1.109,1.109
			s-1.109-0.496-1.109-1.109c0-0.613,0.496-1.109,1.109-1.109S236.246,30.122,236.246,30.734"/>
		<path style="clip-path:url(#SVGID_4_);fill:#5B5B5B;" d="M236.246,34.734c0,0.613-0.496,1.109-1.109,1.109
			s-1.109-0.496-1.109-1.109c0-0.613,0.496-1.109,1.109-1.109S236.246,34.122,236.246,34.734"/>
		<path style="clip-path:url(#SVGID_4_);fill:#5B5B5B;" d="M236.246,38.734c0,0.613-0.496,1.109-1.109,1.109
			s-1.109-0.496-1.109-1.109c0-0.613,0.496-1.109,1.109-1.109S236.246,38.122,236.246,38.734"/>
		<path style="clip-path:url(#SVGID_4_);fill:#5B5B5B;" d="M240.246,26.734c0,0.613-0.496,1.109-1.109,1.109
			s-1.109-0.496-1.109-1.109c0-0.613,0.496-1.109,1.109-1.109S240.246,26.122,240.246,26.734"/>
		<path style="clip-path:url(#SVGID_4_);fill:#5B5B5B;" d="M240.246,30.734c0,0.613-0.496,1.109-1.109,1.109
			s-1.109-0.496-1.109-1.109c0-0.613,0.496-1.109,1.109-1.109S240.246,30.122,240.246,30.734"/>
		<path style="clip-path:url(#SVGID_4_);fill:#5B5B5B;" d="M240.246,34.734c0,0.613-0.496,1.109-1.109,1.109
			s-1.109-0.496-1.109-1.109c0-0.613,0.496-1.109,1.109-1.109S240.246,34.122,240.246,34.734"/>
		<path style="clip-path:url(#SVGID_4_);fill:#5B5B5B;" d="M240.246,38.734c0,0.613-0.496,1.109-1.109,1.109
			s-1.109-0.496-1.109-1.109c0-0.613,0.496-1.109,1.109-1.109S240.246,38.122,240.246,38.734"/>
		<path style="clip-path:url(#SVGID_4_);fill:#5B5B5B;" d="M244.246,26.734c0,0.613-0.496,1.109-1.109,1.109
			s-1.109-0.496-1.109-1.109c0-0.613,0.496-1.109,1.109-1.109S244.246,26.122,244.246,26.734"/>
		<path style="clip-path:url(#SVGID_4_);fill:#5B5B5B;" d="M244.246,30.734c0,0.613-0.496,1.109-1.109,1.109
			s-1.109-0.496-1.109-1.109c0-0.613,0.496-1.109,1.109-1.109S244.246,30.122,244.246,30.734"/>
		<path style="clip-path:url(#SVGID_4_);fill:#5B5B5B;" d="M244.246,34.734c0,0.613-0.496,1.109-1.109,1.109
			s-1.109-0.496-1.109-1.109c0-0.613,0.496-1.109,1.109-1.109S244.246,34.122,244.246,34.734"/>
		<path style="clip-path:url(#SVGID_4_);fill:#5B5B5B;" d="M244.246,38.734c0,0.613-0.496,1.109-1.109,1.109
			s-1.109-0.496-1.109-1.109c0-0.613,0.496-1.109,1.109-1.109S244.246,38.122,244.246,38.734"/>
		<path style="clip-path:url(#SVGID_4_);fill:#5B5B5B;" d="M248.246,26.734c0,0.613-0.496,1.109-1.109,1.109
			s-1.109-0.496-1.109-1.109c0-0.613,0.496-1.109,1.109-1.109S248.246,26.122,248.246,26.734"/>
		<path style="clip-path:url(#SVGID_4_);fill:#5B5B5B;" d="M248.246,30.734c0,0.613-0.496,1.109-1.109,1.109
			s-1.109-0.496-1.109-1.109c0-0.613,0.496-1.109,1.109-1.109S248.246,30.122,248.246,30.734"/>
		<path style="clip-path:url(#SVGID_4_);fill:#5B5B5B;" d="M248.246,34.734c0,0.613-0.496,1.109-1.109,1.109
			s-1.109-0.496-1.109-1.109c0-0.613,0.496-1.109,1.109-1.109S248.246,34.122,248.246,34.734"/>
		<path style="clip-path:url(#SVGID_4_);fill:#5B5B5B;" d="M248.246,38.734c0,0.613-0.496,1.109-1.109,1.109
			s-1.109-0.496-1.109-1.109c0-0.613,0.496-1.109,1.109-1.109S248.246,38.122,248.246,38.734"/>
		<path style="clip-path:url(#SVGID_4_);fill:#5B5B5B;" d="M252.246,26.734c0,0.613-0.496,1.109-1.109,1.109
			s-1.109-0.496-1.109-1.109c0-0.613,0.496-1.109,1.109-1.109S252.246,26.122,252.246,26.734"/>
		<path style="clip-path:url(#SVGID_4_);fill:#5B5B5B;" d="M252.246,30.734c0,0.613-0.496,1.109-1.109,1.109
			s-1.109-0.496-1.109-1.109c0-0.613,0.496-1.109,1.109-1.109S252.246,30.122,252.246,30.734"/>
		<path style="clip-path:url(#SVGID_4_);fill:#5B5B5B;" d="M252.246,34.734c0,0.613-0.496,1.109-1.109,1.109
			s-1.109-0.496-1.109-1.109c0-0.613,0.496-1.109,1.109-1.109S252.246,34.122,252.246,34.734"/>
		<path style="clip-path:url(#SVGID_4_);fill:#5B5B5B;" d="M252.246,38.734c0,0.613-0.496,1.109-1.109,1.109
			s-1.109-0.496-1.109-1.109c0-0.613,0.496-1.109,1.109-1.109S252.246,38.122,252.246,38.734"/>
		<path style="clip-path:url(#SVGID_4_);fill:#5B5B5B;" d="M256.246,26.734c0,0.613-0.496,1.109-1.109,1.109
			s-1.109-0.496-1.109-1.109c0-0.613,0.496-1.109,1.109-1.109S256.246,26.122,256.246,26.734"/>
		<path style="clip-path:url(#SVGID_4_);fill:#5B5B5B;" d="M256.246,30.734c0,0.613-0.496,1.109-1.109,1.109
			s-1.109-0.496-1.109-1.109c0-0.613,0.496-1.109,1.109-1.109S256.246,30.122,256.246,30.734"/>
		<path style="clip-path:url(#SVGID_4_);fill:#5B5B5B;" d="M256.246,34.734c0,0.613-0.496,1.109-1.109,1.109
			s-1.109-0.496-1.109-1.109c0-0.613,0.496-1.109,1.109-1.109S256.246,34.122,256.246,34.734"/>
		<path style="clip-path:url(#SVGID_4_);fill:#5B5B5B;" d="M256.246,38.734c0,0.613-0.496,1.109-1.109,1.109
			s-1.109-0.496-1.109-1.109c0-0.613,0.496-1.109,1.109-1.109S256.246,38.122,256.246,38.734"/>
		<path style="clip-path:url(#SVGID_4_);fill:#5B5B5B;" d="M260.246,26.734c0,0.613-0.496,1.109-1.109,1.109
			s-1.109-0.496-1.109-1.109c0-0.613,0.496-1.109,1.109-1.109S260.246,26.122,260.246,26.734"/>
		<path style="clip-path:url(#SVGID_4_);fill:#5B5B5B;" d="M260.246,30.734c0,0.613-0.496,1.109-1.109,1.109
			s-1.109-0.496-1.109-1.109c0-0.613,0.496-1.109,1.109-1.109S260.246,30.122,260.246,30.734"/>
		<path style="clip-path:url(#SVGID_4_);fill:#5B5B5B;" d="M260.246,34.734c0,0.613-0.496,1.109-1.109,1.109
			s-1.109-0.496-1.109-1.109c0-0.613,0.496-1.109,1.109-1.109S260.246,34.122,260.246,34.734"/>
		<path style="clip-path:url(#SVGID_4_);fill:#5B5B5B;" d="M260.246,38.734c0,0.613-0.496,1.109-1.109,1.109
			s-1.109-0.496-1.109-1.109c0-0.613,0.496-1.109,1.109-1.109S260.246,38.122,260.246,38.734"/>
		<path style="clip-path:url(#SVGID_4_);fill:#444444;" d="M297.333,32.812c0,6.086-4.934,11.021-11.021,11.021
			c-6.086,0-11.02-4.935-11.02-11.021s4.934-11.021,11.02-11.021C292.399,21.792,297.333,26.727,297.333,32.812"/>
		<path style="clip-path:url(#SVGID_4_);fill:#666666;" d="M291.812,32.812c0,3.038-2.463,5.5-5.5,5.5s-5.5-2.462-5.5-5.5
			s2.463-5.5,5.5-5.5S291.812,29.774,291.812,32.812"/>
		<path style="clip-path:url(#SVGID_4_);fill:#7F7F7F;" d="M288.562,32.812c0,1.243-1.008,2.25-2.25,2.25s-2.25-1.007-2.25-2.25
			s1.008-2.25,2.25-2.25S288.562,31.569,288.562,32.812"/>
		<path style="clip-path:url(#SVGID_4_);fill:#444444;" d="M49.438,35.625c0,2.209-1.791,4-4,4s-4-1.791-4-4s1.791-4,4-4
			S49.438,33.416,49.438,35.625"/>
		<path style="clip-path:url(#SVGID_4_);fill:#444444;" d="M61.438,35.625c0,2.209-1.791,4-4,4s-4-1.791-4-4s1.791-4,4-4
			S61.438,33.416,61.438,35.625"/>
		<g style="opacity:0.7;clip-path:url(#SVGID_4_);">
			<g>
				<defs>
					<rect id="SVGID_5_" x="70.291" y="591.611" width="9.151" height="11.902"/>
				</defs>
				<clipPath id="SVGID_6_">
					<use xlink:href="#SVGID_5_"  style="overflow:visible;"/>
				</clipPath>
				
					<polyline style="clip-path:url(#SVGID_6_);fill:none;stroke:#FFFFFF;stroke-width:2;stroke-linecap:round;stroke-miterlimit:10;" points="
					78.442,592.611 71.941,597.516 78.442,602.514 				"/>
			</g>
		</g>
		<g style="opacity:0.7;clip-path:url(#SVGID_4_);">
			<g>
				<defs>
					<rect id="SVGID_7_" x="249" y="591.167" width="11" height="12.833"/>
				</defs>
				<clipPath id="SVGID_8_">
					<use xlink:href="#SVGID_7_"  style="overflow:visible;"/>
				</clipPath>
				<path style="clip-path:url(#SVGID_8_);fill:#FFFFFF;" d="M254.5,593.829l3.5,3.076V602h-7v-5.095L254.5,593.829z M254.5,591.167
					L249,596v8h11v-8L254.5,591.167z"/>
			</g>
		</g>
		<path style="clip-path:url(#SVGID_4_);fill:#686868;" d="M309.746,575c0,2.762-2.238,5-5,5h-279c-2.761,0-5-2.238-5-5V68
			c0-2.761,2.239-5,5-5h279c2.762,0,5,2.239,5,5V575z"/>
	</g>
</g>
</svg>
